<?xml version='1.0' encoding='utf-8'?>
<svg xmlns="http://www.w3.org/2000/svg" width="13.3333in" height="13.3333in" version="1.1" style="shape-rendering:geometricPrecision; text-rendering:geometricPrecision; image-rendering:optimizeQuality; fill-rule:evenodd; clip-rule:evenodd" viewBox="0 0 13333.33 13333.33"> <defs> <style type="text/css">  .fil7 {fill:black} .fil10 {fill:#006633} .fil9 {fill:lime} .fil14 {fill:#17181A} .fil19 {fill:#202126} .fil17 {fill:#300300} .fil16 {fill:#333333} .fil18 {fill:#33CC66} .fil3 {fill:#4D4D4D} .fil20 {fill:#533B2F} .fil2 {fill:#666666} .fil6 {fill:#6666CC} .fil13 {fill:#80100E} .fil1 {fill:gray} .fil5 {fill:#9999FF} .fil11 {fill:#C20814} .fil15 {fill:#CCCCCC} .fil0 {fill:#CFD8DF} .fil4 {fill:#E6E6E6} .fil12 {fill:#FF6600} .fil8 {fill:white}  </style> </defs> <g id="Layer_x0020_1"> <metadata id="CorelCorpID_0Corel-Layer"/> <path class="fil0" d="M12972.01 2256.69c18.91,-10.14 33.67,11.78 25.84,22.26l-44.31 49.56c128.37,135.79 -36.69,332.09 -193.05,224.27 -519.47,577.15 -1456.59,1576.29 -1993.19,2201.48 35.19,47.03 50.52,34.89 74.26,155.26 11.16,56.64 -1.07,163.56 -37.04,245.1 21.29,96.78 -0.08,150.21 -20.67,179.79 -4.59,6.6 -22.19,17.45 -35.23,27.85 -23.58,18.84 -49,36.41 -73.83,25.44 -6.39,31.4 -13.63,42.85 -32.22,40.91 -23.23,-2.43 -54.05,-22.3 -70.19,-42.33 -8,-9.94 -4.03,-28.76 -8.69,-36.71 -5.35,-9.15 -19.36,-6.83 -29.04,-7.43 -40.46,86.79 -93.23,55.45 -170.28,28.48 -70.8,-24.8 -110.7,-16.75 -144.84,-37.28 -29.49,-17.73 -36.08,-64.44 -54.37,-65.82 -111.41,-8.48 -98.73,-93.36 -114.33,-102.86 -77.64,-47.24 -100.06,-85.95 -115.57,-99.5 -17.59,-15.36 -40.98,24.02 -61.24,15.65 -36.06,-14.89 -71.07,-72.8 -104.69,-93.01 -21.56,-12.95 -94.86,33.51 -115.4,21.34 -20.14,-11.95 -59.11,-60.7 -60.73,-93.7 -2.13,-43.22 34.06,-71.01 2.15,-69.99 -94.31,3.02 -157.07,-99.31 -237.37,-156.56 -33.74,-24.04 -78.88,-19.12 -114.41,-39.57 -36.45,-20.98 -63.33,-67.34 -98.71,-86.83 -30.39,-16.73 -84.35,18.6 -115.08,4.24 -26.46,-12.37 -43.23,-59.89 -66.27,-75.87 -19.9,-13.8 -40.77,2.41 -62.45,-2.52 -25.56,-5.81 -52.34,-31.88 -80.07,-37.86 -40.86,-8.83 -100.29,12.52 -145.06,-3.5 -131.28,-46.94 -262.8,-129.48 -353.11,-174.57 -91.28,-45.59 -176.76,-44.83 -250.73,-59.64 -123.27,-24.71 -214.69,-45.71 -248.15,-51.47 -52.53,163.95 -73.5,233.97 -130.86,402.71 -52.67,154.97 -85.04,329.19 -169.15,533.09 -10.85,26.34 -47.48,41.31 -76.94,65.24 -53.14,43.17 -108.61,90.14 -128.75,105.35 16.78,32.02 14.09,40.26 8.25,89.94 -4.95,42.12 -17.54,116.77 -37.68,169.22 -5.72,14.95 -26.66,2.22 -27.2,18.67 -1.81,56.2 1.97,46.52 -3.31,77.61 -6.34,37.31 -28.86,89.05 -42.38,118.43 -7.27,15.83 -24.24,44.94 -42.27,60.62 -20.8,18.06 -43.14,22.81 -53.96,40.64 -45.28,74.56 -81.24,159.29 -127.22,230.53 -21.33,33.05 -55.68,52.42 -74.57,86.03 -11.02,19.63 5.62,33.59 -7.55,54.16 -15.19,23.71 -42.86,42.23 -68.78,69.55 -19.5,20.57 -22.65,38.62 -36.01,61.28 -11.44,19.43 -33.73,43.72 -43,59.93 -85.14,148.75 -135.17,288.31 -227.37,407.93 -16.63,21.6 -65.72,14.48 -68.98,-31.71 -17.93,0.02 -23.05,14.88 -55.04,19.34 -35.47,4.95 -50.44,-6 -73.46,-0.57 -22.37,5.28 -37.02,18.67 -57.25,24.65 -26.1,7.72 -56.68,8.15 -73.83,14.62 -56.4,21.31 -150.59,87.07 -212.13,116.67 -23.85,42.87 -54.9,84.52 -114.65,116.07 -42.28,22.33 -67.55,-6.4 -81.14,22.93 -32.96,71.13 -96.52,76.07 -122.34,128.98 -11.23,23.02 -17.87,38.04 -39.65,54.7 -63.72,48.77 -158.13,70.32 -245.9,108.48l-26.14 85.41c35.43,-13.63 84.11,33.08 105.89,113.5 8.33,30.75 22.55,76.33 16.12,110.79 -16.9,90.51 -84.2,154.67 -116.84,248.24 -12.06,34.56 80.57,112.22 94.74,183.5 23.31,117.35 -30.68,187.69 1.43,187.69 229.91,-157.6 494.83,-368.03 793.27,-624.41 206.28,-177.18 301.26,-337.43 433.39,-441.35 127.31,-100.13 233.7,-94.85 291.52,-91.92 301.3,15.33 228.45,261.35 7.07,533.53 -379.2,466.2 -1058.85,917 -1579.6,1195.43 40.6,159.19 35.69,168.9 29.72,231.86 -7.23,76.21 -114.13,91.56 -149.41,139.28 -28.7,38.85 17.86,137.9 -30.69,217.14 -20.54,33.51 -59.97,57.53 -76.8,74.34 -41.33,41.3 -12.28,27.02 17.74,16.89 95.62,-32.26 275.53,-139.83 436.8,-222.62 315.82,-162.17 678.73,-367.07 1056.8,-633.16 269.26,-189.5 567.86,-455.98 764.93,-552.56 215.9,-105.8 340.22,42.68 378.05,76.94 62.18,56.3 212.51,185.14 1.46,407.38 -301.34,317.37 -892.03,663.18 -1142.33,810.2 -838.44,492.5 -2014.77,949.22 -2767.98,1295.14 -1331.42,611.44 -2195.48,983.05 -2694.2,1057.46 -430.49,64.24 -1020.87,-319.72 -881.59,-337.88 256.09,-33.4 492.25,-102.76 780.83,-192.31 716.3,-222.27 1144.34,-428.87 1949.3,-772.11 25.14,-17.45 55.59,-79.83 116.94,-116.59 13.6,-8.13 42.43,-34.25 59.63,-42.41 14.56,-6.89 38.19,-4.8 53.54,-10.79 26.89,-10.5 33.41,-30.11 58.17,-40.92 42.09,-18.4 91.96,-22.33 126.33,-48.9 2.53,-24.79 4.04,-64.15 10.04,-98.83 5.56,-32.13 13.2,-59.53 73.52,-85.93 -9.54,-20.37 -11.14,-46.41 0.53,-85.65 -1.39,0 -555.34,374.62 -1084.76,635.43 -537.53,264.81 -963.44,412.36 -1268.56,430.78 -228.74,13.81 -945.71,-155.35 -775.09,-153.2 367.17,4.61 817.76,-177.12 1248.06,-379.31 489.82,-230.15 885.3,-467.62 1236.61,-673.86 0.5,-9.04 1.42,-21.99 2.99,-34.67l252.6 43.16c23.5,-97.47 156.07,-197.24 416.37,-299.68l-2.03 -132.12c-113.83,-0.88 -229.08,-32.11 -287.67,-83.98 0.91,-9.64 0.75,-20.21 -0.9,-32.04 -19.55,-140.15 28.45,-229.02 78.2,-296.1 10.83,-14.6 23.84,-27.6 37.94,-39.65 21.33,-18.27 -4.31,-34.45 18.47,-51 11.19,-8.11 26.94,-16.34 43.79,-24.92 19.49,-9.92 -10.37,-20.38 6.83,-31.76 15.61,-10.34 79.01,-21.52 84.34,-33.78 9.13,-20.99 9.87,-49.99 18.18,-70.47 22.75,-56.14 -56.64,-23.62 -64.04,-105.41 -3.91,-43.3 55.76,-118.08 40.48,-158.75 -6.47,-17.2 -23.12,-24.33 -26.41,-44.31 -26.17,-158.55 17.57,-266.19 -20.9,-294.43 -96.06,-70.52 -131.11,-132.53 -152.43,-227.64 -18.02,-80.39 -35.98,-189.33 -35.2,-276.57 0.45,-51.93 17.89,-84.42 17.56,-131.05 -0.19,-27.47 -11.93,-40.56 -12.61,-66.24 -1.16,-42.98 19.31,-83.1 8.33,-118.82 -7.64,-24.87 -142.87,-113.8 -195.3,-173.85 -206.12,-236.05 -221.42,-316.26 -221.42,-378.91 0,-31.7 -4.8,-159.24 94.92,-339.33 38.8,-70.05 77.31,-236.4 144.59,-306.74 23.05,-24.1 55.12,-52.81 84.67,-53.88 15.77,-0.57 22.99,14.15 37.45,16.42 13.5,2.12 34.39,-7.61 46.71,-22.93 20.05,-24.9 14.07,-51.59 34.04,-79.34 20.74,-28.81 86.13,-58.87 109.08,-89.5 31.35,-41.88 10.28,-61.02 36.38,-103.66 14.4,-23.55 34.27,-19.64 56.31,-46.36 37.76,-45.76 42.81,-82.44 96.95,-135.25 6.57,-6.41 48.19,-32.87 55.19,-39.13 38.06,-34 42.86,-70.56 74.65,-106.38 57.41,-64.66 138.53,-127.04 206,-167.98 47.13,-28.61 95.03,2.07 143.38,-43.55 26.48,-25 5.78,-62.06 33.78,-102.04 31.08,-44.4 90.49,-84.25 135.98,-123.62 26.11,-22.59 42.17,-50.61 59.71,-65.12 31.16,-25.79 61.72,-9.81 91.37,-21.07 34.94,-13.26 34.48,-57.1 66.83,-83.98 20.19,-16.76 85.01,-6.71 93.16,-34.29 17.88,-60.53 24.27,-102.87 37,-163.57 -32.61,8.46 -77.44,-18.69 -44.49,-51.07 65.4,-64.26 172.98,-135.38 339.92,-200.31 27.3,-10.62 72.54,-10.35 101.22,-21 14.54,-5.4 0.43,-9.91 9.41,-39.44 2.58,-8.46 12.58,-7.19 13.91,-15.57 1.13,-7.15 -9.06,-24.39 -14.37,-32.15 -16.63,-24.24 -48.47,-50.18 -55.61,-71.04 -18.56,-54.29 31.62,-129.36 11.76,-121.63 -110.74,43.14 -177.89,72.53 -228.27,100.15 -109.93,60.22 -140.26,112.09 -370.31,280.42 -46.41,33.95 -82.52,13.6 -131.76,50 -41.74,30.83 -9.8,160.17 -55.07,190.01 -20.27,13.35 -73.41,22.06 -104.74,35.94 -73.6,32.66 -141.18,64.17 -200.17,37.35 -85.71,-38.97 -31.89,-105.43 -77.41,-95.14 -68.64,15.54 -105.05,88.59 -159.7,116.19 -16.6,8.38 -24.12,-32.52 -40.67,-23.45 -64.67,35.43 -113.52,63.93 -157.06,102.57 -46.97,41.67 13.55,72.61 -83.99,142.73 -104.26,74.96 -189.31,11.65 -208.14,25.29 -123.79,89.68 -216.22,-25.46 -260.48,-121.82 -15.77,-34.3 -12.99,-70.8 -20.82,-105.68 -13.44,-59.91 -37.97,-48.8 -31.44,-148.76 2.71,-41.53 29.03,-121.1 115.11,-153.27 -29.92,-57.52 33.2,-115.83 84,-154.15 -2.2,-62.16 -14.39,-142.4 -54.47,-205.02 -49.87,-77.89 -128.37,-137.45 -114.43,-204.76 7.1,-34.26 54.94,-72.34 73.95,-97.88 38.26,-51.41 59.48,-77.24 94.26,-94.7 22.11,-11.09 129.09,17.17 166.14,224.56 5.79,32.44 39.25,96.37 29.59,125.68 -8.35,25.31 -24.39,48.79 -50.33,68.93 13.92,24.63 25.5,62.96 41.96,147.73 9.09,-21.79 24.2,-52.45 45.08,-62.9 48.85,-24.44 62.03,5.07 75.76,-20.85 26.58,-50.17 195.19,-82.54 222.5,-149.15 6.5,-15.85 36.31,2.46 40.45,-3.73 9.93,-14.83 -10.08,-77.91 11.08,-97.74 20.02,-18.74 110.78,8.92 130.61,-8.66 17.11,-15.13 -0.37,-18.41 -8.85,-36.27 -11.15,-23.45 -16.35,-62.67 -3.03,-91.85 13.11,-28.75 56.31,-83.86 100.12,-116.53 35.52,-26.5 71.5,-30.33 92.17,-56.78 28.28,-36.21 32.18,-97.41 60.62,-139.04 95.27,-139.43 215.43,-280.07 308.91,-416.19 43.7,-63.63 75.49,-86.36 152.52,-152.12 -4.83,-29.49 -2,-75.58 11.8,-159.43 10.26,-62.35 21.95,-159.14 65.92,-213.69 68.72,-85.34 149.93,-177.28 191.02,-175.43 2.14,-14.5 5.43,-30.13 12.07,-43.95 -18.38,-40.43 -43.96,-88.49 7.12,-139.78 43.13,-129.36 124.44,-280.98 188.2,-366.94 193.64,-261.09 439.48,-307.17 594.12,-347.91 83.16,-21.91 196.46,-42.11 288.21,-18.69 31.4,8.02 60.25,21.18 87.95,37.67 52.85,31.46 101.54,75.12 155.81,118.5 36.31,29.04 37.41,80.97 73.87,115.7 119.67,-28.45 278.41,-85.59 415.39,6.85 84.1,56.75 237.55,147.72 355.99,236.74 61.56,46.28 89.17,84.22 144.79,133.25 61.24,53.96 118.12,58.48 157.9,148.59 39.17,88.72 56.39,190.41 74.8,291.29 18.44,100.95 21.85,197.13 23.03,227.38 16.2,19.99 36.61,36.98 60.86,51.93 65.67,40.52 138.95,87.09 254.04,118.62 16.28,4.45 26.76,7.26 44.41,11.44 23.73,5.63 48.96,44.5 74.41,51.05 29.42,7.58 81.99,2.59 114.53,7.08 45.22,6.24 75.89,25.52 118.65,37.15 42.53,11.56 97.22,15.46 144.2,37.38 109.95,51.29 223.22,136.29 334.9,194.28 84.1,43.66 167.42,57.96 247.87,110.21 54.8,35.57 66.58,127.83 112.42,149.46 26.11,12.33 74.38,6.23 100.83,18.46 47.45,21.94 58.36,75.61 106.48,97.31 41.02,18.48 112.13,11.97 156.23,34.74 126.86,65.48 139.76,111.74 227.39,138.34 55.45,16.84 137.09,-5.91 189.61,27.26 16.09,10.16 17.48,27.78 27.57,47.38 16.43,31.91 22.55,63.03 14.93,82.48 142.6,50.45 242.52,123.34 354.05,176.11 49.6,23.46 91.9,32.91 104.74,52.52 5.81,8.86 -4.68,22.81 -5.24,35.83 -0.45,10.55 76.63,58.18 121.96,81.27 -0.02,-30.65 48.87,-51.19 65.26,-90.86 9.11,-22.03 10.42,-40.9 25.8,-46.28 23.96,-8.41 66.53,10.57 93.7,21.42 40.87,16.31 63.78,31.13 69.93,40.78 30.42,47.65 25.01,134.37 12.53,193.54 59.3,46.52 73.64,90.33 90.7,111 28.61,9.48 24.57,23.07 41.5,40.5 594.09,-627.56 1159.62,-1345.63 2018.05,-2170.37 -107.5,-137.24 48.11,-326.89 225.77,-203.93l45.97 -46.8zm-9725.16 1921.32c0,0 -24.69,-58.21 -41.98,-93.09 -21.07,-42.55 -47.74,-75.96 -71.57,-114.07 -42.53,-67.94 70.9,-15.63 110.2,28.18 8.15,9.07 9.4,42 10.07,85.17 0.65,42.34 11.31,106.65 -6.71,93.8z"/> <path class="fil1" d="M3521.12 4900.18c-46.97,41.67 13.55,72.61 -83.99,142.73 -97.02,69.75 -177.4,19.78 -203.27,23.5 138.71,-51.11 191,-110.87 287.26,-166.24z"/> <path class="fil2" d="M12972.01 2256.69c18.91,-10.14 33.67,11.78 25.84,22.26l-44.31 49.56c128.37,135.79 -36.69,332.09 -193.05,224.27 -519.47,577.15 -1456.59,1576.29 -1993.19,2201.48l-85.08 -76.46c594.09,-627.56 1159.62,-1345.63 2018.05,-2170.37 -107.5,-137.24 48.11,-326.89 225.77,-203.93l45.97 -46.8z"/> <path class="fil3" d="M3498.86 10243.19c2.53,-24.79 4.04,-64.15 10.04,-98.83 1.14,-6.53 2.35,-12.87 4.07,-19.05l0.02 0 240.7 178.77 73.28 136.51 -101.4 -27.55 -226.69 -169.85z"/> <path class="fil4" d="M3078.96 10505.06l5.3 -2.26c21.83,-15.14 47.64,-64.12 94.18,-100.83l286.58 152.38 -143.95 99.17 -21.53 54.7 -224.27 -112.55 3.7 -90.61z"/> <path class="fil5" d="M5164.75 9572.42l-0.31 0.66 0.29 -0.64 0.02 -0.02zm-0.69 1.82c-1.78,7.58 18,-1.1 38.14,-7.92 95.62,-32.26 275.53,-139.83 436.8,-222.62 315.82,-162.17 678.73,-367.07 1056.8,-633.16 269.26,-189.5 567.86,-455.98 764.93,-552.56 215.9,-105.8 340.22,42.68 378.05,76.94 62.18,56.3 212.51,185.14 1.46,407.38 -301.34,317.37 -892.03,663.18 -1142.33,810.2 -838.44,492.5 -2014.77,949.22 -2767.98,1295.14 -1331.42,611.44 -2195.48,983.05 -2694.2,1057.46 -430.49,64.24 -1020.87,-319.72 -881.59,-337.88 256.09,-33.4 492.25,-102.76 780.83,-192.31 713,-221.24 1140.46,-427 1938.29,-767.42l11.5 32.18 139.91 146.4 208.62 -7.44 642.88 -311.13c149.31,-8.9 269.69,-92.56 390.67,-183.1 -2.6,-0.67 -5.22,-1.41 -7.83,-2.19l680.98 -329.56 -108.62 -65.13c5.49,-23.62 8.55,-47.38 0.11,-60.02 34.2,-17.43 105.26,-21.72 111.26,-75l21.33 -78.25z"/> <path class="fil5" d="M5455.63 8300.22c-0.76,10.02 1.57,15.29 10.36,15.29 229.91,-157.6 494.83,-368.03 793.27,-624.41 206.28,-177.18 301.26,-337.43 433.39,-441.35 127.31,-100.13 233.7,-94.85 291.52,-91.92 301.3,15.33 228.45,261.35 7.07,533.53 -379.2,466.2 -1058.85,917 -1579.6,1195.43l24.17 -12.98c-11.65,-84.57 -25.28,-165.57 -31.58,-199.3 -6.37,-34.07 -26.91,-39.95 -24.1,-77.56 6.86,-91.9 68.6,-204.8 75.49,-296.72l0.02 -0.02z"/> <path class="fil1" d="M6306.4 6812.34l-0.01 0.01 -0.4 0.21 -0.26 0.14 -0.51 0.28 -0.32 0.17 -0.06 0.03 -0.4 0.21 -0.38 0.2 -0.4 0.22 -0.38 0.21 -0.06 0.02 -0.33 0.18 -0.78 0.41 -0.38 0.2 -0.18 0.09 -0.22 0.11 -0.39 0.2 -0.24 0.11 -0.16 0.09 -1.53 0.78 -0.02 0.03c-5.37,2.74 -10.86,5.27 -16.8,7.17l-0.43 0.14 -0.38 0.12 -0.06 0.01 -0.44 0.14 -0.44 0.13c-26.1,7.72 -56.68,8.15 -73.83,14.62 -56.4,21.31 -150.59,87.07 -212.13,116.67 -23.85,42.87 -54.9,84.52 -114.65,116.07 -42.28,22.33 -67.55,-6.4 -81.14,22.93 -32.96,71.13 -96.52,76.07 -122.34,128.98 -11.23,23.02 -17.87,38.04 -39.65,54.7 -63.72,48.77 -158.13,70.32 -245.9,108.48l-26.14 85.41c35.43,-13.63 84.11,33.08 105.89,113.5 8.33,30.75 22.55,76.33 16.12,110.79 -16.9,90.51 -84.2,154.67 -116.84,248.24 -12.06,34.56 80.57,112.22 94.74,183.5l1 5.27 0.04 0.2 0.43 2.45 0.5 2.94 0.16 0.96 0.6 3.88 0.06 0.48 0.47 3.34 0.26 1.92 0.23 1.87 0.09 0.76 0.34 3.01 0.4 3.73 0.09 0.94 0.24 2.73 0.19 2.31 0.1 1.34 0.24 3.6 0 0.04 0.21 3.54 0.06 1.35 0.09 2.17 0.1 2.67 0.02 0.82 0.08 3.45 0 0.47 0.04 4.67 0 1.63 -0.03 2.97 0 0.36 -0.07 3.29 -0.02 0.87 -0.07 2.38 -0.09 2.07 -0.17 3.89 -0.02 0.43 0 0.05 -0.19 3.07 -0.08 1.23 -0.04 0.46 -0.28 3.74 -0.05 0.71 -0.27 3 -0.04 0.43 -0.24 2.53 -0.17 1.53 -0.15 1.39 -0.3 2.59 -0.03 0.3 -0.34 2.83 -0.1 0.78 -0.27 2.01 -0.24 1.8 -0.12 0.96 -0.4 2.7 -0.01 0.07 -0.56 3.65 -0.24 1.55 -0.33 2.02 -0.09 0.56 -0.43 2.54 -0.08 0.38 -0.6 3.41 -0.2 1.15 -0.91 4.76 -0.13 0.65 -0.32 1.65 -0.31 1.51 -0.14 0.75 -0.46 2.24 -0.01 0.07 -0.44 2.09 -0.17 0.89 -0.26 1.24 -0.86 4.12 -0.07 0.35 -0.33 1.66 -0.23 1.06 -0.18 0.88 -0.37 1.74 -0.03 0.16 -0.38 1.85 -0.11 0.53 -0.26 1.28 -0.24 1.18 -0.12 0.58 -0.33 1.7 -0.02 0.08 -0.28 1.58 -0.29 1.62 -0.23 1.26 -0.05 0.31 -0.24 1.52 -0.05 0.27 -0.17 1.2 -0.12 0.8 -0.08 0.63 -0.16 1.28 0 0.09 -0.14 1.32 -0.11 1.28 -0.02 0.02c-6.89,91.92 -68.63,204.82 -75.49,296.72 -2.81,37.6 17.73,43.48 24.1,77.56 6.3,33.73 19.93,114.73 31.58,199.3l-24.17 12.98c40.6,159.19 35.69,168.9 29.72,231.86l-0.41 3.54 -0.56 3.43 -0.69 3.35c-0.26,1.11 -0.51,2.2 -0.82,3.28l-0.01 0 -0.95 3.19 -0.01 0 -1.07 3.11 -1.21 3.04 0 0.01 -1.31 2.96 -0.02 0 -1.43 2.89 0 0.01 -1.54 2.81 -0.01 0.02 -1.65 2.74 -0.01 0.01 -1.75 2.68 -1.87 2.63 -1.95 2.57 -2.04 2.5 -2.13 2.45 -2.22 2.39 0 0.01 -2.29 2.33 -0.01 0 -2.36 2.28 0 0.02 -2.44 2.23 -0.01 0 -2.5 2.2 -2.58 2.14 0 0.01 -2.63 2.09 0 0.02 -2.68 2.05 -0.01 0.02 -2.73 2.01 -0.01 0.02 -2.78 1.98 -2.83 1.95 0 0.02 -2.87 1.91 0 0.02 -2.91 1.89 0 0.01 -2.93 1.87 -0.02 0 -2.96 1.85 -3 1.83 -3 1.8 -3.02 1.79 -0.02 0 -3.04 1.76 -3.05 1.76 -3.07 1.74 -3.05 1.74 -0.01 0 -3.05 1.72 -3.05 1.7 -3.04 1.71 0 0.02 -3.02 1.69 0 0.01 -3 1.71 -2.98 1.71 -2.95 1.72 -2.93 1.73 -2.89 1.74 -2.85 1.74 -2.81 1.74 0 0.02 -2.76 1.77 -2.72 1.79 -2.65 1.81 -0.02 0 -2.59 1.84 -2.54 1.85 -2.47 1.89 -2.42 1.91 -2.32 1.93 -2.26 1.98 -2.17 2.01 -2.09 2.04 0 0.02 -1.99 2.07 -1.92 2.12 -1.79 2.17 -1.71 2.22c-28.7,38.85 17.86,137.9 -30.69,217.14l-0.19 0.31 -0.19 0.3 -0.19 0.31 -0.19 0.29 -0.19 0.31 -0.04 0.05 -0.16 0.26 -0.2 0.29 -0.19 0.31 -0.2 0.29 -0.2 0.31 -0.05 0.09 -0.14 0.2 -0.21 0.31 -0.19 0.29 -0.2 0.31 -0.21 0.3 -0.09 0.14 -0.11 0.15 -0.19 0.29 -0.2 0.31 -0.22 0.3 -0.2 0.3 -0.12 0.17 -0.08 0.11 -0.21 0.3 -0.2 0.29 -0.22 0.29 -0.2 0.29 -0.17 0.22 -0.05 0.08 -0.43 0.57 -0.22 0.29 -0.21 0.3 -0.19 0.25 -0.02 0.03 -0.22 0.3 -0.22 0.3 -0.22 0.28 -0.22 0.29 -0.22 0.28 -0.01 0.02 -0.21 0.27 -0.22 0.28 -0.23 0.28 -0.22 0.29 -0.22 0.28 -0.05 0.06 -0.17 0.22 -0.22 0.28 -0.23 0.28 -0.22 0.3 -0.23 0.28 -0.08 0.1 -0.14 0.18 -0.23 0.28 -0.23 0.28 -0.23 0.28 -0.23 0.27 -0.13 0.15 -0.1 0.13 -0.23 0.28 -0.24 0.28 -0.24 0.27 -0.22 0.28 -0.17 0.19 -0.08 0.09 -0.22 0.26 -0.24 0.28 -0.23 0.27 -0.24 0.28 -0.19 0.22 -0.05 0.05 -0.23 0.28 -0.24 0.27 -0.04 0.04 -24.87 24 -0.7 0.6 -0.38 0.33 -0.31 0.26 -0.7 0.59 -0.36 0.31 -0.34 0.28 -0.69 0.57 -0.31 0.28 -0.38 0.31 -0.69 0.57 -0.28 0.24 -0.41 0.33 -0.69 0.56 -0.26 0.22 -0.43 0.34 -0.69 0.58 -0.21 0.17 -0.48 0.37 -0.67 0.56 -0.18 0.16 -1.19 0.94 -0.14 0.13 -0.53 0.42 -0.67 0.55 -0.11 0.09 -0.56 0.45 -0.66 0.53 -0.07 0.07 -0.59 0.46 -0.67 0.53 -0.05 0.04 -0.61 0.48 -0.65 0.54 -0.02 0.01 -0.63 0.5 -0.64 0.51 -0.02 0.01 -0.65 0.52 -0.59 0.48 -0.05 0.04 -0.64 0.51 -0.55 0.45 -0.07 0.06 -0.62 0.5 -0.52 0.43 -0.1 0.07 -0.63 0.5 -0.46 0.4 -0.14 0.1 -0.61 0.5 -0.43 0.36 -0.17 0.12 -0.6 0.49 -0.41 0.33 -0.19 0.15 -0.58 0.48 -0.37 0.3 -0.22 0.17 -0.57 0.48 -0.35 0.28 -0.22 0.19 -0.57 0.47 -0.29 0.24 -0.27 0.22 -0.55 0.47 -0.26 0.22 -0.28 0.24 -0.55 0.45 -0.23 0.2 -0.3 0.26 -0.54 0.45 -0.2 0.17 -0.32 0.27 -0.51 0.44 -0.18 0.16 -0.33 0.29 -0.5 0.43 -0.14 0.13 -0.34 0.31 -0.5 0.43 -0.11 0.1 -0.36 0.32 -0.49 0.43 -0.08 0.07 -0.37 0.35 -0.46 0.42 -0.07 0.07 -0.38 0.35 -0.45 0.43 -0.04 0.04 -0.4 0.37 -0.42 0.41 -0.02 0.02 -0.39 0.38 -0.41 0.41 -0.63 0.63 -0.6 0.61 -0.59 0.61 -0.07 0.06 -0.52 0.52 -0.57 0.59 -0.57 0.59 -0.11 0.11 -0.43 0.44 -0.55 0.57 -0.53 0.55 -0.17 0.17 -0.36 0.39 -0.52 0.54 -0.5 0.52 -0.21 0.22 -0.29 0.3 -0.49 0.52 -0.47 0.5 -0.24 0.25 -0.23 0.24 -0.45 0.5 -0.44 0.49 -0.27 0.28 -0.18 0.19 -0.42 0.47 -0.41 0.46 -0.3 0.31 -0.11 0.13 -0.4 0.45 -0.4 0.43 -0.31 0.36 -0.06 0.08 -0.37 0.42 -0.36 0.43 -0.33 0.37 -0.02 0.04 -0.34 0.4 -0.33 0.39 -0.32 0.4 -0.31 0.37 -0.31 0.38 -0.3 0.36 -0.04 0.05 -0.26 0.31 -0.28 0.35 -0.27 0.34 -0.05 0.07 -0.21 0.27 -0.25 0.33 -0.24 0.32 -0.08 0.12 -0.15 0.2 -0.24 0.32 -0.22 0.3 -0.09 0.13 -0.12 0.17 -0.2 0.29 -0.19 0.3 -0.1 0.14 -0.08 0.13 -0.18 0.28 -0.17 0.27 -0.1 0.17 -0.06 0.09 -0.15 0.26 -0.15 0.26 -0.11 0.17 -0.02 0.06 -0.13 0.24 -0.13 0.23 -0.09 0.19 -0.02 0.02 -0.29 0.64 -0.07 0.2 -0.07 0.21 -0.06 0.17 -0.02 0.02 -0.05 0.18 -0.05 0.18 -0.05 0.2 -21.33 78.25 -30.91 33.61 -82.07 11.54 -73.72 3.69 -30.27 15.32 -328.36 53.51 -509.17 -261.5 -70.31 -95.32 81.04 -154.75 14.8 -114.29 25.52 -183.77 -67.2 -251.72 -413.19 -25.14 -46.67 41.88 -0.02 -0.1 -0.14 -0.91 -0.05 -0.32 -0.15 -0.73 -0.05 -0.19 -0.24 -0.84 -0.1 -0.41 -0.1 -0.3 -0.4 -1.07 -0.04 -0.08 -0.49 -1.11 -0.06 -0.11 -0.2 -0.37 -0.43 -0.78 -0.06 -0.09 -0.46 -0.71 -0.09 -0.15 -0.39 -0.53 -0.57 -0.74 -0.13 -0.16 -0.28 -0.33 -0.15 -0.17 -0.66 -0.73 -0.85 -0.86 -0.02 0 -0.91 -0.85 -0.17 -0.14 -0.81 -0.66c-1,-0.8 -2.07,-1.56 -3.2,-2.3l-1.01 -0.65 -0.14 -0.09 -1.2 -0.71 -0.06 -0.04 -1.17 -0.67 -0.29 -0.17 -0.97 -0.54 -0.54 -0.29 -0.75 -0.4 -0.79 -0.42 -0.54 -0.28 -1.03 -0.54 -0.32 -0.15 -1.3 -0.67 -0.07 -0.04 -1.39 -0.7 -0.19 -0.11 -1.23 -0.61 -0.44 -0.23 -0.98 -0.5 -0.7 -0.37 -0.76 -0.38 -0.95 -0.5 -0.5 -0.27 -1.22 -0.66 -0.24 -0.12 -1.46 -0.81 -0.02 -0.01 -1.46 -0.83 -0.28 -0.17 -1.2 -0.69 -0.56 -0.33 -0.93 -0.57 -0.8 -0.52 -0.67 -0.42 -1.07 -0.7 -0.4 -0.26 -1.33 -0.92 -0.13 -0.09 -1.45 -1.06 -0.13 -0.08 -1.31 -1.01 -0.37 -0.29 -0.19 -0.16 -1.32 -1.09 -0.16 -0.13 -0.79 -0.69 -0.86 -0.76 -0.53 -0.5 -1.09 -1.03 -0.28 -0.28 -1.3 -1.34 -0.04 -0.04 -1.31 -1.44 -0.19 -0.23 -1.09 -1.28 -0.14 -0.17 -0.81 -1.04 -0.29 -0.37 -0.63 -0.83 -0.13 -0.18 -1.24 -1.77 -0.06 -0.09 -0.98 -1.53 -0.34 -0.52 -0.16 -0.26 -1.11 -1.88 -0.04 -0.08 -1 -1.89 -0.24 -0.44 -0.29 -0.63 -0.76 -1.58 -0.11 -0.24 -0.57 -1.3 -0.2 -0.5 -0.61 -1.54 -0.09 -0.2 -0.65 -1.75 -0.2 -0.58 -0.74 -2.26 -0.05 -0.17 -0.74 -2.52 -0.07 -0.29 -0.05 -0.21 -0.68 -2.73 -0.17 -0.72 -0.44 -2.06 -0.29 -1.49 -0.28 -1.59 -0.28 -1.8 -0.05 -0.29 -0.34 -2.52 -0.06 -0.56 -0.33 -3.19c-3.91,-43.3 55.76,-118.08 40.48,-158.75 -6.47,-17.2 -23.12,-24.33 -26.41,-44.31 -26.17,-158.55 17.57,-266.19 -20.9,-294.43 -96.06,-70.52 -131.11,-132.53 -152.43,-227.64 -18.02,-80.39 -35.98,-189.33 -35.2,-276.57 0.45,-51.93 17.89,-84.42 17.56,-131.05 -0.19,-27.47 -11.93,-40.56 -12.61,-66.24 -1.16,-42.98 19.31,-83.1 8.33,-118.82 -7.64,-24.87 -142.87,-113.8 -195.3,-173.85 -206.12,-236.05 -221.42,-316.26 -221.42,-378.91 0,-31.7 -4.8,-159.24 94.92,-339.33 38.8,-70.05 77.31,-236.4 144.59,-306.74 23.05,-24.1 55.12,-52.81 84.67,-53.88 15.77,-0.57 22.99,14.15 37.45,16.42 13.5,2.12 34.39,-7.61 46.71,-22.93 20.05,-24.9 14.07,-51.59 34.04,-79.34 20.74,-28.81 86.13,-58.87 109.08,-89.5 31.35,-41.88 10.28,-61.02 36.38,-103.66 14.4,-23.55 34.27,-19.64 56.31,-46.36 37.76,-45.76 42.81,-82.44 96.95,-135.25 6.57,-6.41 48.19,-32.87 55.19,-39.13 38.06,-34 42.86,-70.56 74.65,-106.38 57.41,-64.66 138.53,-127.04 206,-167.98 47.13,-28.61 95.03,2.07 143.38,-43.55l0.74 -0.72 0.48 -0.47 0.25 -0.25 0.7 -0.74 0.18 -0.19 0.49 -0.55 0.58 -0.67 0.06 -0.07 0.63 -0.75 0.33 -0.41 0.27 -0.36 0.57 -0.76 0.1 -0.13 0.46 -0.64 0.44 -0.64 0.09 -0.13 0.5 -0.78 0.24 -0.36 0.26 -0.43 0.48 -0.8 0.04 -0.07 0.41 -0.72 0.32 -0.59 0.11 -0.23 0.42 -0.8 0.15 -0.3 0.26 -0.53 0.38 -0.81 0.37 -0.83 0.22 -0.52 0.13 -0.32 0.33 -0.84 0.09 -0.22 0.23 -0.62 0.28 -0.77 0.03 -0.08 0.29 -0.86 0.15 -0.47 0.11 -0.4 0.27 -0.87 0.05 -0.15 0.2 -0.73 0.19 -0.7 0.04 -0.18 0.23 -0.88 0.11 -0.39 0.11 -0.5 0.2 -0.89 0.02 -0.07 0.17 -0.83 0.15 -0.65 0.05 -0.26 0.17 -0.91 0.07 -0.32 0.1 -0.6 0.17 -0.91 0 -0.01 0.14 -0.93 0.1 -0.58 0.05 -0.35 0.13 -0.94 0.04 -0.24 0.09 -0.7 0.47 -3.81 0.03 -0.14 0.07 -0.82 0.09 -0.77 0.01 -0.2 0.11 -0.97 0.05 -0.43 0.05 -0.56 0.09 -0.99 0.01 -0.05 0.09 -0.93 0.07 -0.69 0.02 -0.29 0.09 -1 0.04 -0.33 0.07 -0.66 0.09 -0.96 0 -0.04 0.61 -6.09 0.07 -0.52 0.05 -0.5 0.12 -1.03 0.02 -0.15 0.1 -0.88 0.11 -0.81 0.02 -0.23 35.6 -0.82 108.2 2.51 83.03 25.17 153.61 145 143.6 54.34 486.02 198.78 237.36 113.59 154.43 44.67 311.29 178.17 264.5 302.99 182.44 365.08c39.46,67.3 0.6,127.7 -37.94,188.13z"/> <path class="fil6" d="M7125.18 7195.27c123.69,80.96 41.57,280.29 -133.95,496.1 -375.17,461.25 -1044.43,907.39 -1562.93,1186.48 -1.06,-11.34 -2.13,-22.63 -3.24,-33.77 245.4,-145.44 447.93,-255.83 659.05,-403.16 710.63,-495.84 1175.66,-975.18 1041.07,-1245.65z"/> <path class="fil5" d="M3706.9 9795.44c-55.55,55.24 -95.03,136.72 -127.91,179.89 -50.48,33.11 -576.75,384.57 -1080.8,632.87 -537.53,264.81 -963.44,412.36 -1268.56,430.78 -228.74,13.81 -945.71,-155.35 -775.09,-153.2 367.17,4.61 817.76,-177.12 1248.06,-379.31 489.82,-230.15 885.3,-467.62 1236.61,-673.86 4.38,76.78 45.5,128.63 78.12,134.14 98.25,16.64 133.2,24.9 290.23,-31.51 65.87,-23.67 296.27,-139.33 506.72,-259.78 -53.22,58.78 -36.66,75.34 -54.99,113.01 -17.9,1.77 -39.23,-6.13 -52.39,6.96zm52.39 -6.96c43.28,24.32 42.85,24.98 0,0z"/> <path class="fil6" d="M3606.84 9933.91c-9.88,15.72 -19.09,29.93 -27.86,41.42 -50.48,33.11 -576.75,384.57 -1080.8,632.87 -537.53,264.81 -963.44,412.36 -1268.56,430.78 -228.74,13.81 -945.71,-155.35 -775.09,-153.2 11.88,0.16 23.85,0.09 35.91,-0.14 97.52,49.76 501.93,127.28 743.2,124.54 186.31,-2.1 370.82,-67.91 578.74,-136.74 567.14,-187.76 1311.36,-634.43 1794.46,-939.52z"/> <path class="fil7" d="M3121.37 5098.87c-17.42,-3 -33.8,-9.9 -49.02,-19.59 -3.38,-51.5 8.22,-97 33.3,-137.11 -182.65,-34.98 -140.23,-283.11 22.26,-237.44l59.95 -74.64c-31.07,-52.94 -55.62,-133.15 -72.51,-245.55 -2.2,-62.16 -14.39,-142.4 -54.47,-205.02 -49.87,-77.89 -128.37,-137.45 -114.43,-204.76 7.1,-34.26 54.94,-72.34 73.95,-97.88 38.26,-51.41 59.48,-77.24 94.26,-94.7 22.11,-11.09 129.09,17.17 166.14,224.56 5.79,32.44 39.25,96.37 29.59,125.68 -8.35,25.31 -24.39,48.79 -50.33,68.93 13.92,24.63 25.5,62.96 41.96,147.73 32.72,237.01 6.43,289.68 -19.84,379.2 71.21,-52.57 131.16,-73.76 183.61,-73.91 -51.46,68.52 -61.98,149.13 -120.14,218.19 -35.57,42.26 -120.37,73.17 -151.46,115.06 -27.74,37.36 -52.66,74.5 -72.85,111.24zm125.47 -920.87c0,0 -24.69,-58.21 -41.98,-93.09 -21.07,-42.55 -47.74,-75.96 -71.57,-114.07 -42.53,-67.94 70.9,-15.63 110.2,28.18 8.15,9.07 9.4,42 10.07,85.17 0.65,42.34 11.31,106.65 -6.71,93.8z"/> <path class="fil3" d="M3073.25 10507.49l5.71 -2.43c25.22,68.88 116.74,117.91 243.17,156.28l17.35 125.79 -262.21 -103.29 -4.03 -176.35z"/> <path class="fil1" d="M2939.2 9832.61c1.01,-18.44 3.78,-53.08 10.27,-68.63 60.34,-144.5 213.11,-209.59 332.11,-283.37 -12.62,-50.89 -21.33,-137.41 39.88,-155.31l0 0c91.69,81.18 322.13,111.84 468.81,54.65 -11.26,42.26 -12.24,74.83 -9.12,100.22 120.52,-38.87 253.11,-109.98 311.47,-173.74l2.53 -2.83c2.52,48.67 -50.31,127.96 -53.56,130.15 -30.82,20.78 -65.75,61 -99.68,87.81 -36.35,28.71 -71.65,24.59 -99.57,69.7 -15.06,24.31 -21.87,54.12 -28.06,84.19 -210.45,120.45 -440.85,236.11 -506.72,259.78 -157.03,56.41 -191.98,48.15 -290.23,31.51 -32.62,-5.51 -73.74,-57.36 -78.12,-134.14z"/> <path class="fil3" d="M2939.2 9832.61c0.5,-9.04 1.42,-21.99 2.99,-34.67l252.6 43.16 3.94 127.92c-73.28,17.23 -111.17,9.63 -181.41,-2.26 -32.62,-5.51 -73.74,-57.36 -78.12,-134.14z"/> <path class="fil0" d="M2942.19 9797.94c1.63,-13.17 3.98,-26.03 7.28,-33.95 60.34,-144.5 213.11,-209.59 332.11,-283.37 -17.4,-69.69 -13.5,-140.09 39.88,-155.31 58.59,51.88 173.84,83.1 287.67,83.98l2.03 132.12c-260.3,102.44 -392.87,202.21 -416.37,299.68l-252.6 -43.16z"/> <path class="fil8" d="M2942.19 9797.94c1.63,-13.17 3.98,-26.03 7.28,-33.95 12.11,-29.01 27.94,-54.81 46.49,-78.13l288.02 30.78c-50.02,41.92 -79.28,83.4 -89.19,124.46l-252.6 -43.16z"/> <path class="fil3" d="M3281.58 9480.62c-10.9,-43.66 -13.43,-87.57 -0.69,-118.05 66.68,50.58 166.61,73.31 325.58,46.7l2.69 1.67 2 130.47c-139.18,-9 -253.02,-27.74 -329.58,-60.8z"/> <path class="fil3" d="M3586.99 8491.4c-0.35,-3.49 -1.07,-6.83 -2.24,-9.96 -6.47,-17.2 -23.12,-24.33 -26.41,-44.31l-0.48 -2.93c14.3,-12.93 34.8,-23.64 72.72,-23.64 28.97,0 56.35,1.1 81.12,3.57 7.3,26.24 31.38,50.67 38.02,72.62 25.9,85.59 7.31,83.56 39.13,83.56 3.74,0 8.43,0.68 13.95,1.9 -12.07,9.15 -27.95,14 -48.7,10.9 -41.65,-6.2 -113.65,-66.27 -167.12,-91.71z"/> <path class="fil3" d="M3321.46 9325.31c0.91,-9.63 0.75,-20.21 -0.9,-32.04 -19.55,-140.15 28.45,-229.02 78.2,-296.1 10.83,-14.6 23.84,-27.6 37.94,-39.65 21.33,-18.27 -4.31,-34.45 18.47,-51 11.19,-8.11 26.94,-16.34 43.79,-24.92 19.49,-9.92 -10.37,-20.38 6.83,-31.76 15.61,-10.34 79.01,-21.52 84.34,-33.78 9.13,-20.99 9.87,-49.99 18.18,-70.47 3.43,-8.48 4.54,-14.94 3.91,-20.07 2.23,-41.03 -30.76,-119.72 74.21,-128.16 40.89,-3.29 151.1,58.08 251.69,74.35 141.89,22.95 280.91,4.94 319.64,11.18 62.78,10.11 -18.17,45.93 -46.47,85.83 -21.34,30.1 13.76,62.57 13.76,88.13 0,11.89 1.52,33 -0.21,62.1 -2.27,15 -4.32,34.6 -9.28,52.82 -6.56,24.11 -27.43,43.22 -27.43,55.62 0,14.98 -1.34,35.41 -0.58,52.61 -8.95,22.44 -19.96,46.22 -33.51,71.24 -26.52,48.95 -10.06,96.84 -58.89,152.35l-0.15 0.18 -2.39 2.65c-58.36,63.76 -190.95,134.87 -311.47,173.74 -3.12,-25.39 -2.14,-57.96 9.12,-100.22 -52.9,20.59 -116.83,29.81 -181.14,29.33l-5.33 -0.06 -4.42 -0.09 -0.92 -0.02 -5.16 -0.14 -0.17 -0.01 -5.33 -0.21 -5.14 -0.22 -0.76 -0.04 -9.45 -0.55 -1.17 -0.08 -4.77 -0.33 -5.31 -0.41c-6.75,-0.55 -13.46,-1.21 -20.14,-1.96l-2.3 -0.25 -3.91 -0.48 -5.22 -0.67 -5.22 -0.7 -5.17 -0.74 -0.28 -0.04 -4.9 -0.75 -0.89 -0.13 -4.25 -0.69 -5.13 -0.85 -0.93 -0.16 -4.17 -0.75 -1.52 -0.28 -3.55 -0.68 -5.05 -0.98 -4.09 -0.83 -1.73 -0.35 -7.74 -1.7 -1.41 -0.31 -2.18 -0.5 -0.74 -0.18 -5.02 -1.2 -1.87 -0.45 -0.03 0 -1.97 -0.5 -4.67 -1.19 -0.94 -0.24 -2.06 -0.55 -4.78 -1.29 -0.65 -0.18 -4.09 -1.16 -0.74 -0.22 -3.69 -1.07 -0.28 -0.07 -4.65 -1.41 -1.24 -0.38 -0.62 -0.19 -5.39 -1.72 -1.18 -0.37 -0.76 -0.25 -4.53 -1.52 -1.79 -0.62 -2.69 -0.94 -4.26 -1.51 -0.18 -0.07 -4.37 -1.63 -2.28 -0.87 -2.04 -0.79 -4.28 -1.7 -0.39 -0.16 -0.43 -0.18 -5.66 -2.35 -0.49 -0.21 -1.43 -0.61 -4.11 -1.8 -0.05 -0.02 -2.78 -1.26 -1.23 -0.55 -3.13 -1.45 -0.85 -0.41 -4.81 -2.33 -0.5 -0.24 -2.5 -1.26 -3.5 -1.8 -0.31 -0.17 -5.07 -2.74 -0.88 -0.49 -5.08 -2.88 -0.17 -0.1 -5.03 -3.02 -0.82 -0.5 -4.4 -2.78 -0.59 -0.39 -0.71 -0.48 -4.24 -2.83 -0.28 -0.19 -4.3 -3.06 -1.57 -1.16 -2.87 -2.16 -0.96 -0.74 -0.39 -0.3 -4.12 -3.31 -0.29 -0.26 -4.19 -3.58z"/> <path class="fil9" d="M3321.46 9325.31c0.91,-9.63 0.75,-20.21 -0.9,-32.04 -19.55,-140.15 28.45,-229.02 78.2,-296.1 265.81,6.17 464.21,108.67 607.98,289.25 -72.17,45.39 -144.33,77.91 -216.48,93.53l-6.58 2.48 -0.35 0.13 -0.57 0.2 -5.08 1.8 -1.4 0.48 -1.16 0.4 -5.18 1.69 -0.83 0.27 -1.79 0.57 -2.61 0.8 -0.65 0.19 -4.57 1.37 -0.06 0.01 -2.67 0.77 -0.52 0.14 -2.16 0.6 -2.69 0.72 -2.69 0.72 -5.45 1.38 -2.72 0.67 -2.76 0.65 -2.76 0.63 -5.55 1.21 -2.79 0.58c-16.79,3.46 -34.12,6.07 -51.79,7.87l-2.95 0.29c-12.78,1.24 -25.72,2.03 -38.73,2.43l-3 0.09 -6.01 0.13 -3.01 0.03 -6.04 0.04 -3.01 0 -2.14 0 -0.87 -0.02 -5.33 -0.06 -4.42 -0.09 -0.92 -0.02 -5.16 -0.14 -0.17 -0.01 -5.33 -0.21 -4.69 -0.19 -0.46 -0.02 -0.76 -0.04 -1.01 -0.06 -8.32 -0.47 -0.13 -0.02 -1.17 -0.08 -4.77 -0.33 -5.31 -0.41 -0.32 -0.02 -0.31 -0.02 -0.31 -0.02 -0.26 -0.02 -0.06 -0.01 -0.31 -0.02 -0.32 -0.03 -0.31 -0.02 -0.32 -0.04 -0.31 -0.02 -0.32 -0.03 -0.32 -0.02 -0.31 -0.03 -0.31 -0.02 -0.32 -0.03 -0.3 -0.04 -0.32 -0.02 -0.31 -0.02 -0.32 -0.03 -0.3 -0.04 -0.32 -0.03 -0.31 -0.02 -0.32 -0.02 -0.3 -0.04 -0.32 -0.02 -0.31 -0.03 -0.31 -0.03 -0.32 -0.03 -0.32 -0.02 -1.57 -0.15 -0.31 -0.04 -0.31 -0.02 -0.32 -0.04 -0.32 -0.03 -0.31 -0.04 -0.31 -0.02 -0.32 -0.04 -0.3 -0.03 -0.32 -0.04 -0.31 -0.02 -0.31 -0.04 -0.31 -0.02 -0.31 -0.04 -0.32 -0.04 -0.31 -0.02 -0.31 -0.04 -0.31 -0.02 -0.31 -0.04 -0.32 -0.04 -0.32 -0.02 -0.3 -0.04 -0.62 -0.06 -0.1 0 -0.85 -0.1 -0.31 -0.04 -0.31 -0.04 -0.31 -0.02 -0.3 -0.04 -0.32 -0.04 -2.3 -0.25 -0.91 -0.12 -3.01 -0.35 -5.22 -0.67 -5.22 -0.7 -5.17 -0.74 -0.28 -0.04 -4.9 -0.75 -0.89 -0.13 -0.5 -0.08 -3.75 -0.61 -5.13 -0.85 -0.93 -0.16 -4.17 -0.75 -1.52 -0.28 -2.27 -0.43 -1.28 -0.26 -5.05 -0.98 -1.57 -0.31 -2.52 -0.52 -1.73 -0.35 -0.66 -0.14 -7.08 -1.56 -1.41 -0.31 -2.18 -0.5 -0.74 -0.18 -5.02 -1.2 -1.87 -0.45 -0.03 0 -1.97 -0.5 -4.67 -1.19 -0.94 -0.24 -2.06 -0.55 -4.78 -1.29 -0.65 -0.18 -4.09 -1.16 -0.74 -0.22 -3.69 -1.07 -0.28 -0.07 -4.65 -1.41 -1.24 -0.38 -0.62 -0.19 -5.39 -1.72 -1.18 -0.37 -0.76 -0.25 -4.53 -1.52 -1.79 -0.62 -6.95 -2.46 -0.18 -0.07 -4.37 -1.63 -2.28 -0.87 -2.04 -0.79 -4.28 -1.7 -0.39 -0.16 -0.43 -0.18 -5.66 -2.35 -0.49 -0.21 -1.43 -0.61 -4.11 -1.8 -0.05 -0.02 -2.78 -1.26 -1.23 -0.55 -3.13 -1.45 -0.85 -0.41 -4.81 -2.33 -0.5 -0.24 -6 -3.06 -0.31 -0.17 -5.07 -2.74 -0.45 -0.24 -0.43 -0.25 -5.08 -2.88 -0.17 -0.1 -5.03 -3.02 -0.47 -0.28 -0.35 -0.22 -4.4 -2.78 -0.59 -0.39 -0.71 -0.48 -4.24 -2.83 -0.21 -0.15 -0.07 -0.04 -4.3 -3.06 -1.57 -1.16 -2.87 -2.16 -0.96 -0.74 -0.39 -0.3 -4.12 -3.31 -0.08 -0.07 -0.21 -0.19 -4.19 -3.58z"/> <path class="fil9" d="M4204.87 8796.27c3.03,21.42 20.19,42.65 20.19,60.61 0,11.89 1.52,33 -0.21,62.1 -2.27,15 -4.32,34.6 -9.28,52.82 -6.56,24.11 -27.43,43.22 -27.43,55.62 0,14.98 -1.34,35.41 -0.58,52.61 -8.95,22.44 -19.96,46.22 -33.51,71.24l-1.56 2.97c-161.28,-284.13 -264.92,-226.06 -218.43,-287.32 32.4,-42.71 122.55,-66.29 270.81,-70.65z"/> <path class="fil7" d="M3398.76 8997.18c10.83,-14.6 23.84,-27.6 37.94,-39.65 21.33,-18.27 -4.31,-34.45 18.47,-51 11.19,-8.11 26.94,-16.34 43.79,-24.92 19.49,-9.92 -10.37,-20.38 6.83,-31.76 15.61,-10.34 79.01,-21.52 84.34,-33.78 9.13,-20.99 9.87,-49.99 18.18,-70.47 3.43,-8.48 4.54,-14.94 3.91,-20.07 2.52,-37.08 -32.02,-120.11 74.21,-128.16 40.9,-3.1 151.1,58.08 251.69,74.35 141.89,22.95 280.91,4.94 319.64,11.18 62.78,10.11 -18.17,45.93 -46.47,85.83 -6.42,9.04 -7.73,18.31 -6.43,27.52 -148.26,4.35 -238.41,27.94 -270.81,70.65 -46.49,61.27 57.16,3.19 218.43,287.32 -9.72,19.15 -13.19,38.17 -16.9,57.56l-107.41 102.62c-145.27,-197.96 -350.13,-310.76 -629.41,-317.24z"/> <path class="fil9" d="M3611 8737.73c1.29,-4.78 1.65,-8.79 1.22,-12.19 2.52,-37.08 -32.02,-120.11 74.21,-128.16 31.19,-2.36 102.7,32.66 179.5,56.64 33.18,51.55 22.65,150.18 -132.85,68.07 -54,-28.52 -84.94,-10.45 -122.09,15.65z"/> <path class="fil3" d="M4140.34 9188.65c-8.67,36.49 -8.81,73.61 -45.19,114.97l-2.53 2.83c-58.36,63.76 -190.95,134.87 -311.47,173.74 -3.12,-25.39 -2.14,-57.96 9.12,-100.22 116.69,-25.26 233.36,-94.71 350.07,-191.32z"/> <path class="fil3" d="M5441.08 9120.98c-2.52,20.36 -12.24,36.29 -25.76,49.69 -125.22,37.67 -308.63,74.91 -390.79,74.91 -130.89,0 -441.48,-54.27 -441.48,-94.47 0,-40.2 254.82,44.93 385.71,44.93 58.02,0 267.18,-30.77 382.25,-54.69 35.67,-7.41 65.43,-14.39 90.06,-20.36z"/> <path class="fil7" d="M12700.26 2507.42c-61.11,-78.03 -37.16,-172.96 27.5,-217.79 0.91,21.1 -11.45,52.38 -1.65,70.94 8.6,16.26 46.63,-3.68 46.63,15.55 0,23.41 -7.28,48.41 -19.88,71.25l-52.6 60.05z"/> <path class="fil7" d="M12953.54 2328.5c128.37,135.79 -36.69,332.09 -193.05,224.27 -40.35,44.83 -83.21,92.2 -128.21,141.74 53.14,-86.86 152.34,-212.59 144.78,-236.81 -2.4,-7.72 -5.85,-44.17 13.01,-57.13 28.05,-19.28 56,2.11 52.9,-15.19 -3.26,-18.14 -29.08,-22.96 -49.41,-43.67 -18.55,-18.88 -35.06,-45.12 -43.5,-64.76 46.42,-21.15 107.41,-19.05 171.54,23.57 1.46,1.04 2.94,2.04 4.44,2.96 13.23,8.12 23.86,18.17 27.5,25.02z"/> <path class="fil7" d="M10631.37 5426.29c-1.36,-0.41 -2.74,-0.85 -4.13,-1.34 1.4,0.5 2.78,0.93 4.13,1.34zm-113.93 -55.04c-38.04,49.22 -86.5,22.67 -153.07,-0.65 -70.8,-24.8 -110.7,-16.75 -144.84,-37.28 -29.49,-17.73 -36.08,-64.44 -54.37,-65.82 -111.41,-8.48 -98.73,-93.36 -114.33,-102.86 -77.64,-47.24 -100.06,-85.95 -115.57,-99.5 42.55,-20.22 121.67,86.88 150.87,81.38 47.13,-8.88 39.59,42.61 86.72,33.72 43.28,-185.53 462.32,7.01 260.44,151.42 14.75,-3.64 45,12.34 84.16,39.58zm-582.19 -306.09c-0.53,-0.47 -1.09,-0.91 -1.64,-1.27 0.56,0.38 1.09,0.8 1.64,1.27zm-3.36 -2.26c-0.57,-0.28 -1.11,-0.5 -1.68,-0.69 0.58,0.19 1.13,0.41 1.68,0.69z"/> <path class="fil10" d="M10535.95 4519.56c4.68,2.17 9.37,4.41 14.07,6.74l28.69 25.5c36.04,36.5 48.12,68.67 62.01,85.5 3.53,1.17 6.54,2.39 9.19,3.7 -0.41,243.67 -107.77,344.34 -285.35,400.28l-94.92 -82.15c168.57,-102.99 280.23,-237.03 266.32,-439.56z"/> <path class="fil11" d="M9909.89 5067.66c-11.88,7.27 -24.39,17.9 -35.88,13.15 -36.06,-14.89 -71.07,-72.8 -104.69,-93.01 -21.56,-12.95 -94.86,33.51 -115.4,21.34 -20.14,-11.95 -59.11,-60.7 -60.73,-93.7 -2.13,-43.22 34.06,-71.01 2.15,-69.99 -94.31,3.02 -157.07,-99.31 -237.37,-156.56 -33.74,-24.04 -78.88,-19.12 -114.41,-39.57 -36.45,-20.98 -63.33,-67.34 -98.71,-86.83 -30.39,-16.73 -84.35,18.6 -115.08,4.24 -26.46,-12.37 -43.23,-59.89 -66.27,-75.87 -19.9,-13.8 -40.77,2.41 -62.45,-2.52 -25.56,-5.81 -52.34,-31.88 -80.07,-37.86 -40.86,-8.83 -100.29,12.52 -145.06,-3.5 -131.28,-46.94 -262.8,-129.48 -353.11,-174.57 -91.28,-45.59 -176.76,-44.83 -250.73,-59.64 -123.27,-24.71 -214.69,-45.71 -248.15,-51.47 -52.53,163.95 -73.5,233.97 -130.86,402.71 -52.67,154.97 -85.04,329.19 -169.15,533.09 -10.85,26.34 -47.48,41.31 -76.94,65.24 -53.14,43.17 -108.61,90.14 -128.75,105.35 16.78,32.02 14.09,40.26 8.25,89.94 -4.95,42.12 -17.54,116.77 -37.68,169.22 -5.72,14.95 -26.66,2.22 -27.2,18.67 -1.81,56.2 1.97,46.52 -3.31,77.61 -6.34,37.31 -28.86,89.05 -42.38,118.43 -7.27,15.83 -24.24,44.94 -42.27,60.62 -20.8,18.06 -43.14,22.81 -53.96,40.64 -45.28,74.56 -81.24,159.29 -127.22,230.53 -21.33,33.05 -55.68,52.42 -74.57,86.03 -11.02,19.63 5.62,33.59 -7.55,54.16 -15.19,23.71 -42.86,42.23 -68.78,69.55 -19.5,20.57 -22.65,38.62 -36.01,61.28 -11.44,19.43 -33.73,43.72 -43,59.93 -85.14,148.75 -135.17,288.31 -227.37,407.93 -16.63,21.6 -65.72,14.48 -68.98,-31.71 -17.93,0.02 -23.05,14.88 -55.04,19.34 -35.47,4.95 -50.44,-6 -73.46,-0.57 -11.96,2.82 -21.71,7.96 -31.29,13.05 38.55,-60.43 77.41,-120.84 37.95,-188.14l-182.44 -365.08 -264.5 -302.99 -311.29 -178.17 -154.43 -44.67 -237.36 -113.59 -486.02 -198.78 -143.6 -54.34 -153.61 -145 -83.03 -25.17 -108.2 -2.51 -35.6 0.82c1.8,-14.1 5.33,-29.2 16.22,-44.74 31.08,-44.4 90.49,-84.25 135.98,-123.62 26.11,-22.59 42.17,-50.61 59.71,-65.12 31.16,-25.79 61.72,-9.81 91.37,-21.07 34.94,-13.26 34.48,-57.1 66.83,-83.98 20.19,-16.76 85.01,-6.71 93.16,-34.29 17.88,-60.53 24.27,-102.87 37,-163.57 -32.61,8.46 -77.44,-18.69 -44.49,-51.07 65.4,-64.26 172.98,-135.38 339.92,-200.31 27.3,-10.62 72.54,-10.35 101.22,-21 14.54,-5.4 0.43,-9.91 9.41,-39.44 2.58,-8.46 12.58,-7.19 13.91,-15.57 1.13,-7.15 -9.06,-24.39 -14.37,-32.15 -16.63,-24.24 -48.47,-50.18 -55.61,-71.04 -18.56,-54.29 31.62,-129.36 11.76,-121.63 -110.74,43.14 -177.89,72.53 -228.27,100.15 -109.93,60.22 -140.26,112.09 -370.31,280.42 -46.41,33.95 -82.52,13.6 -131.76,50 -41.74,30.83 -9.8,160.17 -55.07,190.01 -20.27,13.35 -73.41,22.06 -104.74,35.94 -73.6,32.66 -141.18,64.17 -200.17,37.35 -85.71,-38.97 -31.89,-105.43 -77.41,-95.14 -68.64,15.54 -105.05,88.59 -159.7,116.19 -2.67,1.35 -5.11,1.41 -7.39,0.62l-6.75 -4.88c-8.42,-8.94 -15.45,-25.26 -26.52,-19.19 -157.32,-132.28 -262.58,-297.1 -255.3,-532.28 26.58,-50.17 195.19,-82.54 222.5,-149.15 6.5,-15.85 36.31,2.46 40.45,-3.73 9.93,-14.83 -10.08,-77.91 11.08,-97.74 20.02,-18.74 110.78,8.92 130.61,-8.66 17.11,-15.13 -0.37,-18.41 -8.85,-36.27 -11.15,-23.45 -16.35,-62.67 -3.03,-91.85 13.11,-28.75 56.31,-83.86 100.12,-116.53 35.52,-26.5 71.5,-30.33 92.17,-56.78 28.28,-36.21 32.18,-97.41 60.62,-139.04 95.27,-139.43 215.43,-280.07 308.91,-416.19 43.7,-63.63 75.49,-86.36 152.52,-152.12 -4.83,-29.49 -2,-75.58 11.8,-159.43 10.26,-62.35 21.95,-159.14 65.92,-213.69 68.72,-85.34 149.93,-177.28 191.02,-175.43 -18.36,71.07 -13.16,150.06 -1.31,231.23 -69.2,184.19 -32.61,326.59 190.18,395.54 78.78,153.43 204.97,230.53 365.45,260.89 19.12,62.59 91.43,140.27 134.2,149.78l77.54 187.99 2.25 -0.94 0.44 -0.21 0.14 -0.07 2.61 -1.3 0.1 -0.05 0.31 -0.17 2.57 -1.45 0.17 -0.1 1.15 -0.7 2 -1.27 0.06 -0.04 0.68 -0.45 1.41 -0.94 1.29 -0.87 0.17 -0.11 1.47 -1.05 1.5 -1.07 0.4 -0.29 3.69 -2.78 0.57 -0.43 3.26 -2.55 0.03 -0.03 3.33 -2.69 0.67 -0.57 2.78 -2.32 1.36 -1.15 0.41 -0.34 1.79 -1.53 1.81 -1.58 0.28 -0.23 1.57 -1.37 1.87 -1.65 0.98 -0.87 2.81 -2.52 1.74 -1.58 0.19 -0.17 1.95 -1.79 1.98 -1.81 0.56 -0.52 1.43 -1.33 2.03 -1.88 1.33 -1.25 0.7 -0.66 2.06 -1.94 2.07 -1.98 0.08 -0.06 2.03 -1.94 2.11 -2.02 0.88 -0.84 1.26 -1.21 2.16 -2.08 1.72 -1.66 0.46 -0.45 2.19 -2.14 2.22 -2.16 0.36 -0.36 1.88 -1.83 2.24 -2.2 1.22 -1.2 1.05 -1.03 2.27 -2.26 2.12 -2.07 0.19 -0.19 2.31 -2.3 2.33 -2.32 0.69 -0.69 1.65 -1.65 2.36 -2.36 1.59 -1.59 0.78 -0.8 2.39 -2.39 2.42 -2.43 0.11 -0.11 2.3 -2.31 2.43 -2.45 1.03 -1.05 1.41 -1.42 2.46 -2.47 1.98 -2 0.48 -0.48 2.49 -2.52 2.48 -2.51c73.36,-74.14 161.33,-164.26 225.86,-197.16 124.53,-63.48 249.02,-75.6 294.87,-77.22l-10.54 -92.3c173.16,-48.31 309.38,-77.7 510.27,-163.53 85.23,-36.42 264.97,-142.88 372.41,-145.56 -49.35,-64.3 77.45,-107 44.31,-263.43 12.54,-45.86 2.69,-100.41 -13.63,-153.7 -20.2,-66.7 -63.45,-130.74 -98.37,-200.91 -13.32,-26.76 -8.63,-58.9 -22.15,-84.45 -21.68,-40.95 -65.5,-43.48 -93.78,-73.1 -37.78,-39.59 -55.53,-80.13 -93.81,-121.61 -24.61,-26.64 -58.14,-66.85 -89.41,-94.34 -16.23,-14.26 -31.88,-15.59 -45.33,-30.08 -22.15,-23.88 -44.22,-44.69 -66.07,-62.95 -1.24,-6.58 4.67,-5.74 19.9,4.53 84.09,56.75 237.55,147.72 355.99,236.74 61.56,46.28 89.17,84.22 144.79,133.25 61.24,53.96 118.12,58.48 157.9,148.59 39.17,88.72 56.39,190.41 74.8,291.29 18.44,100.95 21.85,197.13 23.03,227.38 16.2,19.99 36.61,36.98 60.86,51.93 65.67,40.52 138.95,87.09 254.04,118.62 16.28,4.45 26.76,7.26 44.41,11.44 23.73,5.63 48.96,44.5 74.41,51.05 29.42,7.58 81.99,2.59 114.53,7.08 45.22,6.24 75.89,25.52 118.65,37.15 42.53,11.56 97.22,15.46 144.2,37.38 109.95,51.29 223.22,136.29 334.9,194.28 84.1,43.66 167.42,57.96 247.87,110.21 54.8,35.57 66.58,127.83 112.42,149.46 26.11,12.33 74.38,6.23 100.83,18.46 47.45,21.94 58.36,75.61 106.48,97.31 41.02,18.48 112.13,11.97 156.23,34.74 126.86,65.48 139.76,111.74 227.39,138.34 55.45,16.84 137.09,-5.91 189.61,27.26 16.09,10.16 17.48,27.78 27.57,47.38 16.43,31.91 22.55,63.03 14.93,82.48 142.6,50.45 242.52,123.34 354.05,176.11 49.6,23.46 91.9,32.91 104.74,52.52 5.81,8.86 -4.68,22.81 -5.24,35.83 -0.45,10.55 76.63,58.18 121.96,81.27 7.21,43.88 31.92,41.36 1,86.41 -75.67,110.2 -251.1,205.64 -308.17,314.38 -42.65,81.3 -59.89,173.02 -65.74,259.17z"/> <path class="fil12" d="M7823.92 4161.3c-52.53,163.95 -73.5,233.97 -130.86,402.71 -52.67,154.97 -85.04,329.19 -169.15,533.09 -10.85,26.34 -47.48,41.31 -76.94,65.24 -53.14,43.17 -108.61,90.14 -128.75,105.35 0.23,0.61 0.55,1.2 0.92,1.76l-0.92 -1.76c-39.11,-107.73 -41.02,-312.24 -27.42,-591.71 1.83,-38.26 -1.14,-43.46 15.89,-77.79l234.13 -472.36c114.42,17.21 206.08,-1.56 283.11,35.46z"/> <path class="fil12" d="M7093.11 2797.92l0.76 -1.33 0.28 -0.51 1.05 -1.85 0.66 -1.19 0.38 -0.67 1.05 -1.89 0.58 -1.06 0.46 -0.84 1.06 -1.93 0.5 -0.93 0.55 -1.02 1.05 -1.96 0.41 -0.78 0.64 -1.2 1.04 -2.02 0.31 -0.63 0.72 -1.4 1.03 -2.06 0.23 -0.47 0.79 -1.59 1.02 -2.09 0.15 -0.32 0.86 -1.81 0.99 -2.15 0.07 -0.12 0.92 -2.03 0.96 -2.16 0.02 -0.03 0.96 -2.22 0.85 -2.01 0.09 -0.23 0.93 -2.27 0.74 -1.86 0.17 -0.44 1.5 -3.93 0.04 -0.11 0.22 -0.63 0.85 -2.37 0.55 -1.57 0.3 -0.85 0.8 -2.43 0.46 -1.4 0.33 -1.07 0.76 -2.49 0.37 -1.22 0.37 -1.3 0.72 -2.55 0.28 -1.04 0.07 -0.28 0.98 -3.88 0.2 -0.85 0.42 -1.8 0.6 -2.68 0.14 -0.64 0.15 -0.75 0.67 -3.46 0.12 -0.6 0.09 -0.43 0.41 -2.35 0.45 -2.81 0.04 -0.22 0.07 -0.53 0.65 -4.55 0.05 -0.4 0 -0.02 0.06 -0.43 0.53 -4.86 0.04 -0.32 0.02 -0.27 0.43 -5.19 0.02 -0.29 0.04 -0.53c0.55,-8.08 0.5,-15.78 0.24,-23.87l-0.09 -1.69 -0.28 -4.59 -0.04 -0.45 -0.51 -5.95 -0.13 -1.14 -0.59 -5.16 -0.11 -0.88 -0.01 -0.1 -0.88 -6.22 -0.09 -0.6 -0.51 -3.06 -0.65 -3.71 -0.05 -0.32 -0.2 -1.04 -1.24 -6.2 0.57 -2.15 0.53 -2.17 0.5 -2.19 0.02 0 0.46 -2.19 0.02 0 0.43 -2.19 0.01 -0.02 0.4 -2.2 0.01 0 0.37 -2.23 0.02 0c6.73,-40.95 -1.78,-87.5 -15.44,-133.35l-0.02 0 -0.72 -2.5 -0.02 0 -0.75 -2.5c-20.2,-66.7 -63.45,-130.74 -98.37,-200.91 -13.32,-26.76 -8.63,-58.9 -22.15,-84.45 -21.68,-40.95 -65.5,-43.48 -93.78,-73.1 -37.78,-39.59 -55.53,-80.13 -93.81,-121.61 -24.61,-26.64 -58.14,-66.85 -89.41,-94.34 -16.23,-14.26 -31.88,-15.59 -45.33,-30.08l-1.03 -1.12 -0.42 -0.44 -0.63 -0.67 -0.83 -0.89 -0.21 -0.22 -1.05 -1.09 -0.2 -0.24 -0.83 -0.86 -0.64 -0.68 -0.39 -0.41 -1.04 -1.1 -0.02 -0.02 -1.02 -1.07 -0.43 -0.44 -0.59 -0.63 -0.86 -0.88 -0.19 -0.19 -1.03 -1.07 -0.23 -0.25 -0.81 -0.82 -0.65 -0.67 -0.4 -0.4 -1.03 -1.06 -0.02 -0.04 -1.01 -1.02 -0.44 -0.45 -0.59 -0.6 -0.87 -0.88 -0.17 -0.18 -1.05 -1.04 -0.24 -0.24 -0.8 -0.8 -0.65 -0.65 -0.38 -0.38 -1.03 -1.02 -0.04 -0.05 -1 -0.98 -0.45 -0.45 -0.57 -0.57 -0.88 -0.86 -0.17 -0.17 -1.04 -1 -0.25 -0.24 -0.78 -0.77 -0.67 -0.65 -0.37 -0.35 -1.04 -1 -0.05 -0.05 -0.98 -0.94 -0.47 -0.46 -0.56 -0.54 -0.88 -0.84 -0.15 -0.14 -1.03 -0.99 -0.27 -0.24 -0.77 -0.73 -0.67 -0.65 -0.35 -0.33 -1.04 -0.97 -0.06 -0.07 -0.97 -0.91 -0.47 -0.44 -0.55 -0.52 -0.91 -0.84 -0.13 -0.11 -1.04 -0.96 -0.28 -0.27 -0.75 -0.69 -0.69 -0.64 -0.34 -0.31 -1.04 -0.95 -0.07 -0.07 -0.95 -0.86 -0.5 -0.45 -0.53 -0.49 -0.91 -0.81 -0.13 -0.11 -1.02 -0.93 -0.3 -0.26 -0.74 -0.66 -0.72 -0.63 -0.31 -0.29 -1.02 -0.92 -0.1 -0.07 -0.93 -0.83 -0.52 -0.44 -0.52 -0.46 -0.91 -0.81 -0.11 -0.09 -1.03 -0.91 -0.31 -0.27 -0.72 -0.62 -0.72 -0.63 -0.31 -0.27 -1.02 -0.89 -0.1 -0.09 -0.94 -0.79 -0.51 -0.45 -0.51 -0.43 -0.94 -0.79 -0.08 -0.09 -1.04 -0.87 -0.31 -0.27 -0.7 -0.6 -0.72 -0.62 -0.29 -0.24 -1.04 -0.87 -0.11 -0.1 -0.91 -0.76c-1.24,-6.58 4.67,-5.74 19.9,4.53 84.09,56.75 237.55,147.72 355.99,236.74 61.56,46.28 89.17,84.22 144.79,133.25 61.24,53.96 118.12,58.48 157.9,148.59 39.17,88.72 56.39,190.41 74.8,291.29 14.23,77.86 19.52,152.88 21.73,197 -73.19,-18 -139.02,-40.03 -283.56,-19.12z"/> <path class="fil13" d="M9622.8 4978.58c-3.96,-5.1 -7.81,-10.55 -11.36,-16.17 24.08,-8.07 53.17,-24.05 84.75,-55.81 35.92,-36.14 77.1,-189.8 115.74,-240.71 90.34,-119.01 175.99,-149.27 213.33,-193.28 29.36,-34.63 -1.71,-117.23 28.19,-143.64 25.27,-22.33 67.45,-39.11 101.15,-49.42 4.95,3.4 8.85,7 11.49,11.04 1.11,1.69 1.62,3.6 1.73,5.61 -23.74,16.73 -53.39,40.52 -74.8,70.59 -36.94,51.88 -14.25,147.73 -84.52,183.49 -122.88,62.52 -176.97,144.59 -184.9,159.32 -65.49,121.66 -56.67,191.02 -174.9,255.23 -9.38,5.11 -17.98,9.69 -25.89,13.74z"/> <path class="fil13" d="M7251.79 5650.18c-9.57,32.5 -25.43,68.66 -35.9,91.4 -4.81,10.47 -13.86,26.75 -24.67,41.12 -19.33,-15.42 -41.48,-30.57 -66.91,-45.22 -39.52,-22.76 114.79,-133.91 -30.11,-260.59 -110.79,-96.84 -62.54,180.58 -241.72,204.99 -51.72,7.04 -68.51,-60.63 -145.29,-82.38 -189.24,-53.59 -358.33,-51.95 -495.77,-106.83 -51.83,-20.69 -136.87,-48.97 -287.33,-80.72 -133.57,-28.19 -329.65,-33.98 -494.99,-112.9 -235.64,-112.44 -620.91,-82.43 -620.91,-149.25 0,-22.16 89.36,-188.23 43.87,-286.38 -56.33,-121.55 -162.98,-5.31 -204.53,-41.53 17.88,-60.53 24.27,-102.87 37,-163.57 -32.61,8.46 -77.44,-18.69 -44.49,-51.07 4.66,-4.57 9.56,-9.19 14.65,-13.84 30.5,20.73 65.28,46.93 118.9,64.36 31.93,10.38 83.72,-23.57 118.63,-11.4 107.23,37.42 167.09,388.72 287.64,439.69 412.27,174.3 722.98,163.46 786.29,163.46 26.43,0 20.4,54.52 98.66,104.46 42.86,27.33 131.18,-2.72 194.51,22.56 108.44,43.33 203.28,136.37 302.18,143.31 63.87,4.48 126.19,-21 186.33,-52.64 25.56,-13.46 50.78,70.38 75.54,56.5 22.93,-12.86 45.55,-123.59 67.7,-133.8 63.12,-29.07 123.01,-41.56 178.85,-4.01 42.69,28.71 106.75,74.35 134.08,128.7 20.77,41.29 36.25,87.65 47.79,135.56z"/> <path class="fil13" d="M4335.12 4524.84c-6.2,3.11 -12.57,6.97 -19.18,11.85 -6.54,4.83 -11.28,12.07 -14.77,20.98 -30.41,-23.31 -62.14,-51.57 -87.56,-74.11 -34.2,-30.3 -72.13,-1.58 -72.13,-20.61 0,-8.83 -59.44,-143.57 -93.53,-156.44 -19.59,-7.39 12.74,85.79 -4.3,97.91 -23.46,16.71 -96.55,-48.37 -128.91,-90.55 -56.65,-73.81 -74.33,-191.29 -110.91,-279.35 -3.18,-7.64 -6.41,-15.11 -9.65,-22.39 14.98,0.41 27.37,-0.78 33.34,-6.08 17.11,-15.13 -0.37,-18.41 -8.85,-36.27 -1.54,-3.24 -2.97,-6.78 -4.24,-10.55 18.71,29.3 38.95,63.72 59.62,102.52 33.28,62.53 60.74,194.26 97.38,227.62 41.59,37.88 -7.6,-91.55 34.01,-70.4 75.67,38.48 136.47,171.24 211.35,221.59 27.16,18.27 72.93,50.88 118.33,84.28z"/> <path class="fil14" d="M3671.15 5626.11c4.91,-5.5 10.31,-11.17 16.34,-17.04 6.57,-6.41 48.19,-32.87 55.19,-39.13 38.06,-34 42.86,-70.56 74.65,-106.38 57.41,-64.66 138.53,-127.04 206,-167.98 44.41,-26.95 89.5,-1.27 135,-36.38 53.72,4.94 110.85,11.06 164.39,20.11 26.73,4.5 124.97,-22.51 56.51,-54.65 -41.75,-19.59 -111.91,-18.35 -196.35,-16.55 0.63,-6.62 1.26,-13.54 2.5,-20.66 67.24,-7.09 160.76,-10.03 252.22,27.44 78.04,31.95 142.45,141.14 149.99,143.9 100.93,36.97 310.23,55.7 407.91,95.72 129.69,53.12 212.83,147.15 319.19,201.24 168.82,85.83 290.52,109.94 404.41,160.85 130.11,58.17 246.64,157.27 353.11,211.03 49.33,24.9 123.94,84.91 227.81,159.05 43.15,30.8 155.89,89.9 171.34,108.83 17.92,21.99 -260.38,-139.02 -235.89,-107.37 67.24,86.92 232.02,262.52 232.02,339.84 0,81.52 -99.76,165.83 -204.26,211.87 -57.67,25.43 -104.71,17.7 -165.79,42.23 -41.14,16.52 -71.73,85.29 -104.94,109.07 -41.29,29.59 -83.58,12.96 -118.37,12.24 -18.46,-0.38 5.26,47.09 -12.51,37.52 -64.76,-34.86 -145.86,-264.43 -253.26,-383.07 -60.86,-67.24 -170.32,-146.63 -201.09,-230.22 -20.03,-54.43 -27.59,-213.82 -31.5,-254.55 -10.17,-105.61 250.58,-176 228.57,-257.54 -14.26,-52.84 -129.12,-37.48 -207.81,-68.79 -166.71,-66.33 -380.76,-153.09 -604.69,-212.92 -148.41,-39.65 -259.42,-156.26 -329.29,-189.98 -42.22,-20.39 -89.2,-23.45 -91.03,8.38 -1.55,26.79 43.1,89.33 7.27,77.28 -118.74,-39.97 -202.63,107.8 -314.4,81.38 -177.06,-41.85 -277.09,106.56 -393.24,115.22z"/> <path class="fil14" d="M3277.08 7244.54c-40,-31.81 -84.15,-67.22 -109.29,-96 -206.12,-236.05 -221.42,-316.26 -221.42,-378.91 0,-31.7 -4.8,-159.24 94.92,-339.33 38.8,-70.05 77.31,-236.4 144.59,-306.74 23.05,-24.1 55.12,-52.81 84.67,-53.88 15.77,-0.57 22.99,14.15 37.45,16.42 13.5,2.12 34.39,-7.61 46.71,-22.93 20.05,-24.9 14.07,-51.59 34.04,-79.34 20.74,-28.81 86.13,-58.87 109.08,-89.5 31.35,-41.88 10.28,-61.02 36.38,-103.66 14.4,-23.55 34.27,-19.64 56.31,-46.36 10.96,-13.28 19.17,-25.81 26.61,-38.17 143.36,-4.28 332.36,-6.69 407.93,96.92 54.89,75.26 117.76,167.76 65.46,304.64 -29.9,78.26 -162.98,192.02 -191.22,272.42 -20.55,58.46 11.27,92.19 0.59,146.35 -23.92,121.34 -73.73,251.71 -73.73,328.66 0,133.1 147.61,215.08 146.61,284.72 -0.35,25.46 -57.97,11.66 -99.59,34.19 -46.77,25.33 -80.98,86.46 -137.07,103.48 -131.58,39.94 -317.08,-19.72 -459.04,-32.96z"/> <path class="fil15" d="M6050.33 3040.39l0.01 0 -0.19 -0.23 0.18 0.23zm35.1 -11.75c74.28,-13.75 193.19,-74.71 228.04,-164.37 -15.54,-30.32 46.42,-37.9 80.65,-164.37 9.8,-36.18 26.07,-126.59 27.89,-192.48 1.01,-36.84 -11.23,-47.52 -10.42,-81.61 3.43,-142.54 2.91,-120.87 -105.11,-415.07l-91.45 -158.3c16.52,149.91 -29.1,417.64 -55.31,539.73 -12.68,49.72 -26.2,97.41 -39.57,141.27 -22,83.26 -49.05,160.96 -82.29,231.57l-1.33 2.83 -1.08 2.27 -1.09 2.27 -0.61 1.3 -0.47 0.97 -1.09 2.26 -1.08 2.25 -0.16 0.33 -0.93 1.92 -1.1 2.24 -0.78 1.62 -0.3 0.63 -1.1 2.23 -2.18 4.45 -1.1 2.22 -0.94 1.93 -0.15 0.28 -1.1 2.22 -0.16 0.31 -0.15 0.32 -0.16 0.31 -0.15 0.3 -0.17 0.32 -0.15 0.3 -0.16 0.31 -0.02 0.02 -0.13 0.28 -0.16 0.32 -0.15 0.3 -0.16 0.31 -0.15 0.31 -0.16 0.32 -0.17 0.3 -0.02 0.06 -0.13 0.24 -0.15 0.31 -0.16 0.31 -0.15 0.31 -0.16 0.31 -0.15 0.31 -0.17 0.31 -0.05 0.1 -0.1 0.21 -0.16 0.31 -0.15 0.31 -0.16 0.32 -0.15 0.3 -0.15 0.31 -0.17 0.3 -0.06 0.14 -0.09 0.17 -0.15 0.3 -0.16 0.31 -0.15 0.31 -0.16 0.31 -0.17 0.3 -0.15 0.3 -0.09 0.18 -0.06 0.13 -0.15 0.32 -0.15 0.31 -0.15 0.3 -0.17 0.31 -0.15 0.31 -0.16 0.31 -0.1 0.21 -0.05 0.1 -0.15 0.3 -0.16 0.31 -0.17 0.3 -0.15 0.31 -0.16 0.3 -0.15 0.31 -0.13 0.24 -0.03 0.06 -0.17 0.3 -0.15 0.31 -0.16 0.31 -0.15 0.31 -0.15 0.3 -0.17 0.3 -0.14 0.27 -0.02 0.04 -0.15 0.31 -0.16 0.31 -0.15 0.31 -0.15 0.29 -0.17 0.31 -0.16 0.31 -0.15 0.31 -0.18 0.37 -0.93 1.8 -1.1 2.15 -0.82 1.59 -0.29 0.55 -1.12 2.14 -1.11 2.14 -4.46 8.52 -1.13 2.12 -1.1 2.12 -1.13 2.11 -1.12 2.1 -0.04 0.09 -1.09 2.01 -1.12 2.09 -0.69 1.29 -0.44 0.8 -0.22 0.4 -0.2 0.38 -0.22 0.39 -0.21 0.4 -0.22 0.38 -0.06 0.13 -0.14 0.27 -0.22 0.39 -0.2 0.38 -0.22 0.4 -0.21 0.38 -0.14 0.26 -0.07 0.14 -0.2 0.38 -0.22 0.39 -0.22 0.38 -0.2 0.39 -0.22 0.38 -0.21 0.4 -0.21 0.38 -0.21 0.4 -0.22 0.38 -0.22 0.39 -0.06 0.12 -0.14 0.26 -0.22 0.39 -0.22 0.4 -0.2 0.38 -0.22 0.4 -0.14 0.24 -0.07 0.14 -0.21 0.38 -0.22 0.39 -0.21 0.38 -0.22 0.38 -0.22 0.39 -0.2 0.39 -0.22 0.38 -0.22 0.38 -0.2 0.38 -0.22 0.4 -0.08 0.12 -0.14 0.26 -0.42 0.76 -0.22 0.38 -0.21 0.39 -0.15 0.26 -0.07 0.14 -0.21 0.38 -0.43 0.76 -0.22 0.38 -0.2 0.38 -0.02 0 -0.2 0.38 -0.22 0.39 -0.22 0.38 -0.2 0.38 -0.22 0.38 -0.08 0.13 -0.14 0.26 -0.2 0.39 -0.22 0.38 -0.22 0.38 -0.22 0.38 -0.14 0.26 -0.07 0.12 -0.21 0.39 -0.22 0.38 -0.22 0.38 -0.21 0.38 -0.22 0.38 -0.55 1 -0.59 1.04 -1.15 2.03 -1.13 2.02 -0.08 0.13 -1.07 1.89 -1.86 3.29 -0.42 0.72 -1.15 2.01 -1.15 2 -0.24 0.43 -0.91 1.55 -1.15 2 -0.91 1.57 -0.24 0.41 -1.16 1.99 -1.15 1.98 53.23 57.41c-6.9,31.08 15.93,34.18 36.21,35.61l31.81 31.81 -0.81 0.15z"/> <path class="fil16" d="M5665.72 1535.01c71.67,-14.04 153.35,-21.27 222.72,-3.57 31.4,8.02 60.25,21.18 87.95,37.67 52.85,31.46 101.54,75.12 155.81,118.5 36.31,29.04 37.41,80.97 73.87,115.7 36.9,131.57 -16.94,451.85 -46.35,588.83 -45.68,179.07 -102.29,331.6 -123.19,375.67l-1.08 2.27 -1.09 2.27 -0.61 1.3 -0.47 0.97 -1.09 2.26 -1.08 2.25 -0.16 0.33 -0.93 1.92 -1.1 2.24 -0.78 1.62 -0.3 0.63 -1.1 2.23 -2.18 4.45 -1.1 2.22 -0.94 1.93 -0.15 0.28 -1.1 2.22c-3.3,6.62 -6.61,13.17 -9.93,19.66l-0.18 0.37 -0.93 1.8 -1.1 2.15 -0.82 1.59 -0.29 0.55 -8.93 17.04 -1.13 2.11 -1.12 2.1 -0.04 0.09 -1.09 2.01 -1.12 2.09 -0.69 1.29 -0.44 0.8c-4.5,8.35 -9.04,16.59 -13.59,24.72l-0.55 1 -0.59 1.04 -1.15 2.03 -1.13 2.02 -0.08 0.13 -1.07 1.89 -1.86 3.29 -0.42 0.72 -1.15 2.01 -1.15 2 -0.24 0.43 -0.91 1.55 -1.15 2 -0.91 1.57 -0.24 0.41 -1.16 1.99 -1.15 1.98c-38.72,66.37 -79.14,125.52 -120.67,179.71 -10.12,13.2 -20.32,2.23 -30.55,16.12 -42.4,57.61 -84.4,137.62 -129.61,205.98l-235.65 -164.94c331.78,-102.4 760.2,-1075.19 563.33,-1441.68 -52.52,-97.81 -176.22,-144.17 -346.12,-163.83z"/> <path class="fil17" d="M5564.78 3674.15l-77.54 -187.99c-42.77,-9.52 -115.07,-87.19 -134.2,-149.78 39.87,7.54 81.86,12.21 125.76,14.44l10.19 -1.06c13.5,28.57 29.63,56.4 49.57,75.29 16.65,15.78 41.93,-0.79 59.46,20.43 12.22,14.78 14.6,66.46 27.02,83.17 17.24,23.23 44.61,12.26 61.89,37.35 -53.28,53.84 -98.84,99.24 -122.14,108.16z"/> <path class="fil7" d="M5448.52 3140.53l235.65 164.94c-9.09,4.33 -17.88,8.23 -26.27,11.63 -37.7,15.25 -111.48,26.84 -179.1,33.72 -220.61,-11.19 -392.87,-83.78 -491.21,-275.33 93.56,62.44 219.41,102.94 460.93,65.04z"/> <path class="fil7" d="M5964.99 2903.65l53.23 57.41c-6.9,31.08 15.93,34.18 36.21,35.61l31.81 31.82c74.32,-14.04 192.5,-74.89 227.23,-164.23 -5.55,-10.82 -1.23,-18.74 8.19,-30.2l0 -0.02 -19.58 -19.57c25.09,-26.03 131.87,-251.52 69.56,-380.15 -141.95,0.8 -223.85,217.05 -320.36,301.26l-6.57 14.63 150.42 183.85 -85.98 63.13 -16.31 -16.34 -35.91 -44.62c-28.85,-43.17 -48.49,-69.2 -61.49,-86.98 -10.03,18.66 -20.18,36.79 -30.45,54.39z"/> <path class="fil7" d="M6111.6 2895.65c17.76,0 32.15,14.71 32.15,32.86 0,18.15 -14.39,32.86 -32.15,32.86 -17.76,0 -32.15,-14.7 -32.15,-32.86 0,-18.15 14.39,-32.86 32.15,-32.86z"/> <path class="fil18" d="M5684.16 3305.47c45.21,-68.37 87.2,-148.37 129.61,-205.98 10.23,-13.89 20.43,-2.92 30.55,-16.12 41.38,-54.33 82.09,-113.42 120.67,-179.71l53.23 57.41c-6.9,31.08 15.93,34.18 36.21,35.61l31.81 31.81 -35.04 13c-91.48,88.69 -253.87,210.17 -367.05,263.98z"/> <path class="fil15" d="M4798.72 2448.72c2.14,-14.5 5.43,-30.13 12.07,-43.95 -18.38,-40.43 -43.96,-88.49 7.12,-139.78 43.13,-129.36 124.44,-280.98 188.2,-366.94 193.64,-261.09 439.48,-307.17 594.12,-347.91 20.28,-5.34 42.38,-10.57 65.49,-15.12 169.9,19.67 293.6,66.03 346.12,163.83 196.87,366.5 -231.55,1339.28 -563.33,1441.68 -241.52,37.89 -367.38,-2.61 -460.93,-65.04 -222.79,-68.94 -259.38,-211.35 -190.18,-395.54 -11.84,-81.17 -17.04,-160.15 1.31,-231.23zm929.84 -923.61c5.74,-0.67 11.5,-1.24 17.27,-1.76 -5.78,0.51 -11.53,1.09 -17.27,1.76z"/> <path class="fil14" d="M4961.89 6232.68c86.69,0 565.15,296.15 620.44,532.33 19.7,84.19 11.02,187.48 -61.11,250.62 -94.52,82.75 -262.69,119.13 -262.69,179.9 0,18.28 41.04,14.03 58.23,32.73 16.1,17.53 8.94,57.41 -4.16,93.38 -40.44,111.06 -200.85,296.95 -255.99,428.84 -45.66,109.19 -35.91,234.26 -107.19,286.45 -62.04,45.43 -166.07,44.79 -240.93,8.46 -59.33,-28.79 -89.63,-86.68 -142.24,-115.01 -64.3,-34.64 -125.09,-18.7 -149.68,-18.7 -42.32,0 -20.36,-31.44 -47.08,-101.57 -26.41,-69.33 -73.94,-88.53 -97.45,-190.84 -18.96,-82.55 -1.99,-173.52 -9.98,-271.36 -9.5,-116.59 -42.12,-238.04 -42.12,-298.35 0,-67.16 91.9,-138.45 145.73,-239.57 35.55,-66.82 17.19,-159.89 78.13,-226.35 86.66,-94.5 129.54,-170.93 227.33,-235.2 96.95,-63.72 249.04,-115.75 290.74,-115.75z"/> <path class="fil13" d="M6858.12 6122.76c127.2,151.66 -149.75,-104.09 -268.94,-197.99 -119.19,-93.9 -311.64,-217.2 -316.91,-234.74 -5.61,-18.64 191.31,62.33 370.98,208.69 89,72.5 87.67,72.38 214.88,224.04z"/> <path class="fil13" d="M5823.22 4750.26c14.96,0 166.94,17.39 340.64,43.14 125.88,18.66 287.64,45.31 299.4,55.81 12.56,11.2 -414.82,-48.19 -555.63,-51.39 -87.51,-1.98 71.74,48.88 102.11,57.12 390.16,105.91 1126.07,260.43 1126.07,319.1 -262.86,-113.88 -727.05,-184.36 -1016.83,-270.67 -488.43,-145.46 -628.19,-224.38 -819.88,-314.56 146.86,1.99 387.37,161.44 524.11,161.44z"/> <path class="fil13" d="M4661.86 2630.51c57.41,0 -7.3,215.35 41.63,421.71 27.41,115.66 -36.2,281.32 -36.2,325.13 0,49.4 12.28,184.35 97.96,258.44 30.61,26.46 66.18,49.16 101.66,68.3 3.64,1.95 -107.71,-303.89 -96.86,-466.04 2.18,-32.7 40.35,-2.96 41.67,-28.13 1.73,-33.17 -8.37,-96.27 18.29,-111.79 43.25,-25.17 97.42,-18.54 130.77,2.83 7.14,4.58 -41.65,88.45 -77.09,127.72 -7.81,8.67 -30.57,16.41 -22.16,-1.71 6.83,-14.7 45.23,-55.48 40.86,-54.68 -7.65,1.39 -63.1,34.41 -72.59,102.39 -18,128.95 53.9,363.49 68.02,445.27 1.91,11.15 20.32,9.7 30.16,14.11 85.37,38.33 151.96,55.26 119.17,55.26 -48.6,0 -288.83,-48.6 -403.93,-155.32 -51.11,-47.36 -45.95,-63.19 -51.71,-119.98 -5.19,-51.09 -23.71,-144.32 -23.71,-170.76 0,-121.96 4.46,-712.75 94.06,-712.75z"/> <path class="fil13" d="M3785.08 4163.87c57.23,0 84.97,187.6 181.2,309.83 73.88,93.86 227.37,124.86 227.37,150.86 0,17.3 -13.89,74.04 -43.68,61.23 -29.72,-12.78 -115.69,-94.69 -174.86,-162.95 -48.16,-55.56 -73.61,-101.11 -77,-101.11 -2.71,0 11.25,40.4 11.99,59.87 1.2,31.88 -6.68,54.62 13.79,99.71 25.63,56.48 104.89,94.98 89.56,146.58 -31.68,106.62 -35.23,-35.31 -73.86,-45.43 -15.77,-4.14 -43.41,10.69 -64.65,-16.28 -52.87,-67.17 -113.64,-204.01 -134.4,-227.17 -21.95,-24.46 -92.22,-71.58 -119.53,-47.7 -19.54,17.11 2.43,88.25 -35.98,115.52 -36.74,26.07 -44.31,-75.11 -10.38,-120.91 20.44,-27.59 35.85,-60.42 82.95,-50.13 90.49,19.8 227.06,152.74 227.06,145.41 0,-59.85 -200.77,-317.33 -99.6,-317.33z"/> <path class="fil13" d="M8902.08 3705.14c11.84,0 -23.19,65.3 -89.93,130.46 -45.73,44.65 -118.14,77.57 -153.85,136.03 -95.4,156.17 -104.48,334.52 -104.48,333.32 0,-160.48 -15.31,-307.37 130.69,-422.56 29.26,-23.09 83.56,-69.67 138.7,-114.47 26.93,-21.88 57.96,-62.78 78.88,-62.78z"/> <path class="fil13" d="M8082.06 3224.55c40.61,0 18.71,197.11 15.91,297.54 -2.8,100.43 -22.98,375.9 28.73,652.9 -40.6,0 -65.66,-448.02 -65.66,-534.91 0,-86.88 -19.58,-415.53 21.02,-415.53z"/> <path class="fil13" d="M8052.87 3143.23c57.89,0 -52.66,152.96 -196.73,224.23 -73.89,36.56 -155.53,105.83 -155.53,41.19 0,-17.4 48.91,-30.8 87.81,-72.68 15.26,-16.44 2.76,-61.08 24.7,-76.2 25.58,-17.6 53.17,-9.64 83.45,-22.66 58.85,-25.3 137.52,-93.89 156.3,-93.89z"/> <path class="fil13" d="M4619.35 4035.15c114.14,46.6 74.44,34.1 178.28,61.24 0,26.29 -159.93,-18.52 -179.36,2.09 -18.22,19.34 132.17,98.24 96.95,98.24 -72.72,0 -302.88,-189.49 -302.88,-240.47 0,-50.97 92.87,32.3 207.01,78.9z"/> <path class="fil13" d="M4203.7 3652.2c34.85,0 -147.56,184.2 -147.56,291.01 0,42.89 53.01,194.83 163.82,242.41 165.18,70.93 379.37,-14.59 349.75,31.42 -15.01,23.31 -258.84,21.78 -320.05,75.12 -56.37,49.1 61.41,131.59 -9.16,100.72 -31.27,-13.66 -33.92,-60 -65.05,-100.44 -97.32,-126.44 -215.13,-168.45 -212.15,-364.11 1.63,-106.79 148.97,-276.12 240.4,-276.12z"/> <path class="fil13" d="M4948.69 3829.32c83.94,0 178.79,-19.88 178.79,32.77 0,27.8 -199.59,-0.75 -225.9,30.78 -9.52,11.4 138.12,5.9 161.72,27.45 34.76,31.78 -17.72,93.02 -72.9,90.76 -83.86,-3.43 -312.9,-236.4 -312.9,-289.05 0,-52.66 187.25,107.29 271.19,107.29z"/> <path class="fil13" d="M4356.64 3379.58c126.97,0 267.06,334.49 277.91,403.67 7.13,45.4 -189.51,-346.14 -217.65,-295.56 -7.56,13.6 -4.38,207.02 124.88,342.44 122.09,127.91 371.17,198.67 349.98,198.67 -126.98,0 -538.8,-167.51 -538.8,-290.11 0,-40.31 -14.93,-128.04 -1.55,-198.66 8.62,-45.52 49.95,-77.05 44.86,-107.41 -2.52,-15.05 -28.55,-9.28 -59.81,-13.17 -37.23,-4.63 -24.78,-39.89 20.18,-39.89z"/> <path class="fil13" d="M5066.04 4938.36c81.67,-200.09 124,-352.76 218.38,-645.33 32.48,-100.73 67.98,-296.47 110.33,-399.72 51.02,-124.35 110.57,-177.56 166.74,-227.18l3.3 8.02 0.19 -0.08 2.43 -1.04 0.04 -0.01 0.04 -0.02 0.16 -0.07 0.2 -0.09c-19.82,20.67 -37.85,45.43 -53.44,75.78 229.02,-142.79 624.7,-73.33 853.7,-216.09 90.02,-56.13 35.11,-223.24 94.33,-313.69 51.55,187.6 193.57,163.3 283.89,125.83 102.44,-42.5 372.41,-100.43 402.3,-220.04 13.45,-53.85 -55.15,-166.62 -118.59,-227.46 11.69,-2.69 22.95,-4.67 33.65,-5.83 86.89,138.28 208.59,260.75 -6.93,357.76l-253.14 119.69c-192.43,65.85 -305.41,26.85 -347.32,-105.97 -36.3,223.26 23.49,286.61 -107.85,329.83 -204.77,67.39 -692.06,94.27 -829.6,186.45 -97.42,65.28 -111.55,197.32 -159.24,355.98 -83.19,276.66 -164.33,629.44 -286.1,818.61 -2.51,-5.04 -4.98,-10.14 -7.46,-15.31zm562.73 -1314.72l0.01 0 -0.01 0.02 0 -0.02z"/> <path class="fil3" d="M3834.06 5712.3c47.75,0 210.42,-15.38 327.47,-10.66 97.67,3.92 109.07,29.77 219.94,23.85 126.13,-6.72 179.92,-107.31 334.92,-76.33 39.76,7.94 71.3,45.8 114.45,83.16 36.17,31.29 86.83,58.71 96.56,102.65 11.8,53.37 -23.33,120.32 -41.35,181.3 -13.57,45.97 -8.46,87.86 -16.56,122.2 -22.73,96.31 -120.35,119.14 -120.35,156.41 0,3.17 -0.07,6.5 -0.17,9.88 -27.61,13.49 -54.35,28.24 -77.83,43.68 -97.79,64.27 -140.67,140.7 -227.33,235.2 -60.93,66.46 -42.57,159.53 -78.13,226.35 -20.28,38.09 -45.95,71.94 -70.09,102.94 -128.41,8.45 -295.15,-23.05 -358.63,-23.05 -47.58,0 -83.63,-12.33 -110.79,-33.67l-0.02 -1.07c0,-76.95 49.81,-207.31 73.73,-328.66 10.68,-54.16 -21.15,-87.89 -0.59,-146.35 28.25,-80.4 161.33,-194.16 191.22,-272.42 52.3,-136.88 -10.58,-229.37 -65.46,-304.64 -39.89,-54.69 -111.38,-79.84 -191.07,-90.76l0.06 0z"/> <path class="fil3" d="M5021.99 5770.22c31.79,0 182.48,14.68 182.48,73.45 0,16.95 -94,-44.46 -124.79,-7.17 -12.81,15.51 6.61,88.18 54.14,112.52 50.18,25.7 128.73,3.37 117.5,27.8 -7.3,15.88 -59.63,19.15 -104.09,7.53 -26.23,-6.85 -44.5,-37.58 -64.68,-26.72 -59.3,31.95 -34.06,101.54 -53.61,110.5 -15.55,7.13 -28.8,30.74 -40.07,37.43 -52.88,31.41 -62.78,39.5 -69.93,39.5 -20.95,0 -22.67,-62.21 4.45,-128.26 14.03,-34.2 63.59,-76.74 63.59,-96.79 0,-58.77 3.22,-149.78 35.01,-149.78z"/> <path class="fil13" d="M7766.01 3166.92c-9.17,68.39 -27.95,93.22 -46.7,140.22 -18.75,47 -185.39,205.86 -226.44,205.86 -41.06,0 141.6,-151.93 141.6,-196.74 0,-13.25 37.33,-32.19 51.48,-52.22 33.7,-47.71 51.15,-97.11 80.07,-97.11z"/> <path class="fil13" d="M7018.21 4288.52c40.09,-6.77 -84.63,74.1 -163.83,178.02 -48.82,64.05 -90.71,165.88 -131.29,178 -66.24,19.8 29.24,-94.87 104.9,-199.24 59.1,-81.52 126,-145.93 190.22,-156.78z"/> <path class="fil13" d="M9309.71 4037.16c27.8,0 -33.91,254.33 -33.91,313.29 0,58.96 7.54,215.05 -20.25,215.05 -27.8,0 -46.68,-190.45 -46.68,-249.41 0,-58.96 73.04,-278.93 100.84,-278.93z"/> <path class="fil3" d="M4248.58 6329.46c33.24,0 58.89,32 103.05,56.62 52.88,29.46 117.57,67.33 163.35,114.39l-14.26 17.3c-25.84,-26.34 -55.55,-54.95 -87.69,-79.8 -54.73,-42.32 -136.59,-65.44 -176.13,-65.44 -41.86,0 -89.14,-24.88 -135.36,-15.31 -82.32,17.02 -175.38,28.81 -156.57,14.72 19.02,-14.26 74.43,-10.42 101.78,-22.96 73.51,-33.74 121.92,-19.52 201.81,-19.52z"/> <path class="fil3" d="M3972.92 6873.51c45.24,0 89.05,-66.02 138.5,-65.4 29.5,0.35 39.55,15.46 68.15,20.48 28.73,5.04 78.68,-74.41 105.94,-67 18.66,5.07 -0.46,46.06 14.76,57.9 15.91,12.38 39.78,3.2 61.66,-2.62 -48.16,86.57 -122.71,151.11 -138.83,210.43 -13.78,-3.16 -23.24,-10.27 -25.68,-22.45 -2.39,-11.95 15.84,-50.07 16.11,-68.44 0.31,-20.72 -27.19,-12.15 -51.24,-6.69 -46.66,10.61 -67.55,-14.78 -97.67,-14.78 -21.59,0 -62.09,29.98 -99.73,32.89 -33.09,2.56 -63.7,-21.56 -82.03,-25.08 -16.79,-3.22 -32.09,-5.15 -46.07,-6.17 -6.63,-19.24 -10.61,-39.66 -10.61,-61.46 0,-8.11 0.55,-16.83 1.57,-26.05 38.32,20.46 86.23,44.43 145.17,44.43z"/> <path class="fil13" d="M9262.54 3847.67c62.57,0 -86.86,64.89 -261.52,158.55 -119.93,64.3 -274.69,187.09 -274.69,131.83 0,-34.83 473.65,-290.38 536.22,-290.38z"/> <path class="fil13" d="M9185.49 3936.97c7.71,0 29.56,-5 61.83,-21.38 16.8,-8.52 37.2,-31.74 58.3,-34.29 21.46,-2.59 31.15,12.17 52.37,17.23 36.52,8.71 80.02,12.11 80.02,17.45 0,8.67 -35.69,-0.6 -74.3,21.71 -38.78,22.43 -80.54,76.47 -91.98,76.47 -9.66,0 -41.12,-14.12 -72.17,2.27 -42.37,22.35 -85.54,76.17 -85.54,66.14 0,-17.38 48.67,-145.61 71.48,-145.61z"/> <path class="fil13" d="M9646.74 3938.67c16.11,0 20.48,14.37 28.44,33.39 8.33,19.89 19.89,44.95 18.17,66.37 -1.17,14.64 -30.41,-4.53 -52.65,-14.62 -20.96,-9.51 -34.03,-8.76 -67.69,-36.2 -40.68,-33.18 -79.19,-38.19 -115.93,-48.93 -12.33,-3.59 0.52,-16.93 21.11,-17.12 46.71,-0.46 145.65,17.12 168.55,17.12z"/> <path class="fil13" d="M6873.63 4810.11c56.47,0 209.89,8.86 209.89,50.09 0,20.33 -8.54,50.66 20.49,89.96 29.88,40.48 90.94,89.72 68.33,89.72 -28.83,0 -77.59,-110.93 -172.38,-137.23 -90.87,-25.23 -228.59,34.5 -228.59,14.31 0,-41.24 45.78,-106.85 102.26,-106.85z"/> <path class="fil13" d="M9231.94 4101.15c14.11,4.12 -141.67,382.87 -179.89,258.98 -3.67,-11.9 31.8,-48.91 72.26,-106.75 46.69,-66.72 100.08,-154.43 107.63,-152.23z"/> <path class="fil13" d="M7727.72 3105.41c48.67,0 131,-7.44 119.68,3.3 -29.69,28.16 -77.88,41.3 -125.18,55.09 -75.87,22.1 -135.22,34.69 -135.22,19.88 0,-15.61 92.06,-78.27 140.72,-78.27z"/> <path class="fil13" d="M8956.29 3649.78c0,10.36 -67.78,27.89 -109.36,59.41 -67.66,51.3 -122.36,115.85 -122.36,69.54 0,-16.97 45.73,-63.46 96.54,-89.07 63.58,-32.06 135.18,-41.92 135.18,-39.87z"/> <path class="fil13" d="M7169.89 4143.29c36.09,-32.95 37.91,242.78 96.15,341.46 17.44,29.55 52.52,29.2 85.37,23.23l-44.73 90.22c-8.41,16.94 -11.94,26.79 -13.59,37.02 -75.08,-12.89 -159.81,-63.93 -159.81,-132.19 0,-79.31 0.61,-326.87 36.61,-359.74z"/> <path class="fil13" d="M9045.46 4018.44c46.28,11.54 -117.55,236.68 -109.98,198.41 7.56,-38.27 53.72,-87.76 6.36,-87.76 -26.07,0 -71.96,17.93 -127.48,54.22 -45.33,29.65 -104.39,81.49 -104.39,63.83 0,-20.03 38.58,-41.37 68.34,-61.96 28.65,-19.85 244.6,-172.35 267.14,-166.73z"/> <path class="fil13" d="M8365.91 3615.11c45.94,0 16.11,56.57 -38.4,165.87 -42.52,85.24 -102.38,241.56 -132.27,229.28 -8.97,-3.69 29.92,-158.58 49.82,-215.86 19.9,-57.27 74.89,-179.29 120.84,-179.29z"/> <path class="fil13" d="M8599.1 3603.32c20.34,0 110.65,-26.02 125.96,-11.59 23.51,22.16 -23.99,100.98 -46.03,135.36 -66.82,104.34 -74.48,187.43 -126.04,187.43 -31.63,0 -20.2,-65.81 -23.66,-116.76 -2.19,-32.07 -23.6,-46.19 -23.6,-72.26 0,-67.47 41.8,-122.17 93.36,-122.17z"/> <path class="fil13" d="M6194.03 5955.08c-116.9,-104.9 -436.72,-225 -558.26,-255.5 -31,-7.78 -237.94,-86.93 -411.09,-144.44 -95.54,-31.73 -160.24,-85.39 -252.05,-115.88 -137.88,-45.78 -306.47,-84.79 -410.4,-112.51 -6.49,-8.51 -14.07,-18.11 -22.51,-28.13 103.16,24.19 296.44,83.49 469.5,133.67 80.06,23.22 208.76,102.77 440.26,176.16 317.27,100.57 744.56,255.67 744.56,346.62z"/> <path class="fil13" d="M6822.12 4072.19c-10.5,106.43 -86.25,130.08 -181.35,173.25 -116.97,53.09 -247.43,124.6 -247.43,121.67 0,-92.9 128.51,-137.25 230.17,-191.17 113.11,-60 200.57,-123.52 198.61,-103.75z"/> <path class="fil13" d="M7519.76 3056.77c40.87,0 104.28,-5.04 163.74,-24.5 0,41.65 -54.57,54.98 -105.9,90.3 -86.72,59.69 -189.64,128.71 -189.64,113.48 0,-15.93 54.36,-75.95 92.8,-123.71 20.15,-25.05 24.94,-55.57 38.99,-55.57z"/> <path class="fil13" d="M8660.56 3460.23c40.93,0 -55,39.79 -86.21,51.65 -31.41,11.93 -49.89,40.22 -60.32,35.58 -22.67,-10.12 105.6,-87.23 146.53,-87.23z"/> <path class="fil13" d="M7540.83 3953.34c161.59,0 540.79,161.61 540.79,202.21 0,16.08 -11.46,-8.35 -86.08,-41.59 -113.8,-50.69 -318.85,-124.26 -416.45,-124.26 -161.6,0 -413.58,50.19 -413.58,9.58 0,-40.61 213.72,-45.95 375.33,-45.95z"/> <path class="fil13" d="M7486.92 3428.55c5.82,25.48 -239.85,283.44 -239.85,239.87 0,-41.6 195.7,-239.87 239.85,-239.87z"/> <path class="fil13" d="M6941.82 3588.25c-112.8,49.94 -151.55,131.26 -151.55,104.95 0,-22.54 32.97,-49.57 49.91,-65.06 43.93,-40.16 109.52,-43.38 101.64,-39.89z"/> <path class="fil7" d="M10274.73 4403.51c28.52,-34.28 55.57,-83.02 82.48,-112.47 16.46,-18 43.61,-17.93 57.63,-16.51 60.22,6.07 185.55,41.71 129.31,248.9 -56.21,-27.09 -111.83,-41.57 -167.18,-51.01 2.9,-22.26 20.14,-65.81 28.41,-99.24 9.45,-38.17 7.94,-63.89 -5.72,-63.89 -26.73,0 -60.82,61.43 -60.82,101.67 0,17.13 0.81,37.94 3.8,56.17 -14.61,-2.02 -29.2,-3.83 -43.78,-5.5 1.43,-15.97 -11.24,-24.56 -16.06,-53.93l-8.07 -4.19z"/> <path class="fil3" d="M3884.56 5591.35c143.98,-41.11 331.44,26.35 518.18,97.21 -202.54,-20.24 -344.01,-91.14 -518.18,-97.21z"/> <path class="fil3" d="M3838.04 7808.39c102.25,-31.6 260.06,-73.9 239.42,-104.8 -11.5,-17.22 -72.53,-43.89 -150.53,-45.64 -81.65,-1.82 -181.09,21.52 -221.13,17.98 -18.27,-1.62 -22.37,-17.05 -14.74,-20.15 51.13,-20.82 197.7,-42.63 301,-22.08 88.75,17.66 139.63,76.28 139.63,82.35 0,7.05 -19.83,37.83 -70.11,57.9 -49.22,19.63 -128.39,28.48 -179.2,48.91 -89.69,36.06 -219.48,113.06 -310.91,35.85 -82.37,-69.59 -132.21,-174.61 -132.21,-188.46 0,-13.8 58.29,111.65 140.31,164.89 92.83,60.28 179.58,-2.37 258.46,-26.74z"/> <path class="fil3" d="M4385.84 6454.25c16.8,0 -44.79,93.5 -44.79,145.02 0,51.52 -25.63,145.02 -42.43,145.02 -16.81,0 4.05,-64.09 4.05,-115.61 0,-51.52 66.36,-174.43 83.16,-174.43z"/> <path class="fil3" d="M4436.37 5413.42c61.41,22.14 95.87,47.45 162.63,76.35 51.31,22.2 119.74,24.89 119.74,39.17 0,32.86 -50.71,92.17 -119.02,92.17 -36.63,0 -122.58,13.55 -220.56,8.51 -84.67,-4.35 -181.07,-27.53 -230.13,-26.42 -9.98,0.22 20.2,-9.07 78.09,-8.28 46.85,0.64 91.91,15.07 153.17,16.23 118.07,2.23 252.35,-10.11 266.78,-22.16 11.48,-9.57 46.57,-28.95 35.07,-42.59 -17.58,-20.86 -92.91,-37.74 -126.39,-59.05 -72.66,-46.22 -144.25,-82.9 -119.39,-73.93z"/> <path class="fil3" d="M4043.8 7265.68c45.08,0 56.35,24.23 91.31,75.09 7.59,11.06 4.31,48.53 24.16,70.43 19.47,21.46 62.2,27.43 62.2,33.3 0,13.35 -25.61,5.61 -43.14,4.06 -17.84,-1.57 -27.89,2.7 -56.94,-20.52 -26.64,-21.27 -43.85,-117.93 -97.91,-121.43 -64.35,-4.15 -137.09,45.28 -137.09,5.94 0,-17.76 56.09,-15.11 82.76,-22.13 32.44,-8.53 39.26,-24.74 74.65,-24.74z"/> <path class="fil3" d="M5366.96 7221.35c32.56,1.3 148,-22.69 299.33,-99.85 -24.97,6.93 -379.79,96.64 -299.33,99.85z"/> <path class="fil3" d="M4840.25 8515.77c-18.95,0.76 -21.44,-59.41 -45.81,-108.72 -31.1,-62.94 -85.49,-129.74 -128.96,-199.65 -74.22,-119.33 -234.11,-179.3 -234.11,-209.45 0,-24.89 53.61,-61.73 103.01,-10.27 64.41,67.12 371.18,525.46 305.86,528.09z"/> <path class="fil9" d="M4076.26 9420.26c88.61,0 264.97,163.87 441.21,231.47 123.52,47.38 274.56,42.45 385.24,48.11 -55.86,39.31 -134.68,102.08 -197.93,161.35 -126.53,118.56 -205.6,303.57 -211.32,206.7 -3.43,-58.19 -144.33,-168.03 -275.89,-255.38 -134.24,-89.14 -257.15,-180.4 -392.85,-180.4 4.22,-13.99 9.48,-27.32 16.71,-39.34l0.22 -0.35 0.24 -0.39 0.45 -0.76 1.31 -2.08 1.33 -2 1.33 -1.94 0.01 0 1.34 -1.87 1.35 -1.81 1.37 -1.75 1.37 -1.69 1.4 -1.62 0 -0.01 1.39 -1.56 0 -0.01 1.4 -1.5 0.02 0 1.41 -1.46 0 -0.02 1.43 -1.4 1.43 -1.35 0 -0.01 1.44 -1.3 0 -0.01 1.45 -1.25 0 -0.01 1.46 -1.21 0 -0.02 1.47 -1.16 0 -0.02 1.48 -1.14 0 -0.01 1.48 -1.09 0 -0.01 1.49 -1.06 0 -0.01 3.01 -2.02 0 -0.02 1.52 -0.96 0 -0.01 1.52 -0.93 0 -0.01 1.53 -0.91 0 -0.02 1.53 -0.87 0.02 -0.02 1.53 -0.85 0.02 -0.01 1.54 -0.83 0.01 -0.02 1.54 -0.8 0.02 -0.02 1.56 -0.79 0 -0.02 1.57 -0.78 0 -0.02 1.58 -0.76 0 -0.02 1.59 -0.75 0 -0.02 1.59 -0.74 0 -0.01 1.59 -0.73 0 -0.01 1.59 -0.73 0 -0.01 1.6 -0.72 0 -0.01 1.62 -0.73 0 -0.01 1.61 -0.71 0.01 -0.02 1.62 -0.71 0 -0.01 1.62 -0.73 0 -0.01 1.64 -0.73 0 -0.01 1.64 -0.73 0 -0.01 1.63 -0.75 0.01 0 1.64 -0.77 0.01 0 1.65 -0.78 1.66 -0.79 0 -0.02 1.66 -0.79 0 -0.01 1.65 -0.82 0 -0.01 1.67 -0.83 0 -0.02 1.68 -0.85 0 -0.02 1.67 -0.88 0 -0.01 1.67 -0.91 0 -0.01 1.69 -0.93 0 -0.02 1.68 -0.96 1.69 -1.01 1.69 -1.03 1.69 -1.07 1.69 -1.11 1.7 -1.15 0 -0.02 1.7 -1.18 1.69 -1.23 1.7 -1.27 1.71 -1.33 1.59 -1.26 0.64 -0.51 0.95 -0.78 1.28 -1.05 0.31 -0.26 1.59 -1.33 0.32 -0.27 1.28 -1.07 0.96 -0.8 0.64 -0.55 1.6 -1.36 1.59 -1.38 0.65 -0.56 0.96 -0.85 1.27 -1.12 0.32 -0.28 1.59 -1.43 0.33 -0.28 1.28 -1.15 0.95 -0.87 0.64 -0.57 1.6 -1.45 1.59 -1.47 0.64 -0.59 0.96 -0.88 1.29 -1.17 0.32 -0.31 1.6 -1.49 4.79 -4.48 0 -0.02 1.59 -1.5 2.86 -2.71 0.32 -0.31 1.59 -1.51 0.31 -0.3 1.28 -1.22 0.94 -0.9 0.64 -0.61 1.59 -1.51 0 -0.01 1.58 -1.5 0.63 -0.6 0.96 -0.92 1.26 -1.19 0.31 -0.31 1.57 -1.49 0.32 -0.29 1.26 -1.21 3.13 -2.96 0.02 -0.01 1.57 -1.48 0.61 -0.59 0.94 -0.89 1.26 -1.16 0.31 -0.31 1.56 -1.45 0.3 -0.27 1.25 -1.18 0.93 -0.85 0.62 -0.59 1.55 -1.41 0.02 -0.02 1.54 -1.41 0.61 -0.55 0.93 -0.85 1.23 -1.1 0.31 -0.29 1.53 -1.37 0.3 -0.26 1.24 -1.11 0.91 -0.79 0.62 -0.55 3.03 -2.63 0.61 -0.51 0.91 -0.78 1.2 -1 0.31 -0.27 1.5 -1.26 0.28 -0.22 1.21 -1.01 0.89 -0.72 0.61 -0.5 1.48 -1.17 0.02 -0.02 1.48 -1.16 0.59 -0.45 2.06 -1.58 0.31 -0.25 1.47 -1.08 0.28 -0.21 1.18 -0.86 0.87 -0.62 0.59 -0.43 1.43 -1 0.02 -0.02 1.44 -0.98c12.32,-8.3 23.98,-13.51 34.66,-13.51zm890.17 285.11c23,3.31 42.53,8.16 57.37,15.34 32.75,16.12 -7.17,105.59 -7.17,128.69 0,41.91 -140,117.26 -268.32,143.26 -36.11,7.33 -25.23,-21.34 -56.76,-4.02 -43.12,23.69 -89.45,68.86 -139.48,120.79 28.76,-47.87 79.82,-114.96 100.67,-133.22 122.5,-107.35 272.17,-209.48 315.53,-270.57l-1.84 -0.27zm-968.54 659.94c4.57,-25.07 16.3,-50.09 31.44,-59.41 42.38,-26.07 125.93,-28.22 113.76,-28.22 -214.09,0 -549.88,-70.34 -560.67,-219.24 -48.52,-2.82 -45.77,8.97 -32.24,-31.63 3.93,-11.76 20.26,-40.24 28.81,-51.46 32.88,-43.17 72.36,-124.66 127.91,-179.89 13.17,-13.09 34.49,-5.19 52.39,-6.96 57.13,50.35 177.95,92.17 300.69,162 141.9,80.72 285.15,202 406.84,233.91 -141.41,105.83 -282.01,202.28 -468.94,180.91z"/> <path class="fil14" d="M4280.36 7721.89c-8.17,44.07 2.09,97.99 26.1,139.53 16.2,28.02 47.09,41.24 50.96,77 8.37,77.3 -54.15,187.79 -67.38,275.49 -5.7,37.86 -53.46,99.73 -74.8,164.67 -20.18,61.41 -13.84,126.15 -26.7,159.17 -15.8,40.5 -8.46,75.22 -41.94,90.37 -111,50.25 -310.6,-57.81 -357.72,-57.81 -31.82,0 -13.23,2.03 -39.13,-83.56 -7.55,-24.94 -37.59,-53.06 -39.98,-83.4 -2.24,-28.38 22.74,-58.75 27.07,-90.39 4.49,-32.78 -33.57,-63.7 -28.19,-96.81 4.21,-25.91 53.57,-54.59 47.89,-77.49 -6.61,-26.63 -38.22,-13.69 -61.54,-34.79 -37.59,-33.99 -85.59,-108.16 -70.76,-112.74 170.89,-52.72 540.87,-217.72 656.14,-269.25z"/> <path class="fil7" d="M3759.29 9788.48c18.33,-37.67 1.77,-54.23 54.99,-113.01 3.02,-14.72 6.21,-29.38 10.44,-43.36l0.12 -0.42 0.07 -0.23 0.17 -0.57 0.03 -0.1 0.21 -0.65 0.01 -0.04 0.19 -0.61 0.06 -0.16 0.15 -0.49 0.1 -0.29 0.11 -0.36 0.14 -0.42 0.08 -0.23 0.18 -0.55 0.02 -0.1 0.22 -0.65 0.02 -0.03 0.19 -0.61 0.06 -0.17 0.37 -1.12 0.16 -0.42 0.27 -0.78 0.03 -0.09 0.21 -0.64 0.02 -0.04 0.21 -0.6 0.06 -0.17 0.16 -0.47 0.11 -0.29 0.11 -0.34 0.44 -1.18 0.02 -0.1 0.24 -0.62 0.02 -0.04 0.45 -1.22 0.11 -0.3 0.13 -0.33 0.17 -0.42 0.07 -0.22 0.22 -0.54 0.02 -0.09 0.57 -1.4 0.17 -0.46 0.13 -0.29 0.12 -0.33 0.18 -0.41 0.08 -0.22 0.22 -0.52 0.03 -0.09 0.25 -0.61 0.03 -0.04 0.24 -0.59 0.08 -0.15 1.26 -2.9 0.02 -0.04 0.24 -0.56 0.09 -0.17 0.47 -1.05 0.2 -0.4 0.09 -0.2 0.57 -1.2 0.03 -0.03 0.35 -0.72 0.2 -0.43 0.5 -0.98 0.09 -0.2 0.27 -0.52 0.04 -0.09 0.91 -1.75 0.15 -0.27 0.17 -0.31 0.59 -1.08 0.04 -0.08 0.31 -0.57 0.02 -0.04 0.3 -0.53 0.08 -0.16 0.24 -0.42 0.17 -0.27 0.17 -0.31 0.22 -0.38 0.1 -0.19 0.3 -0.48 0.03 -0.08 0.35 -0.57 0.02 -0.02 0.41 -0.68 0.11 -0.2 0.24 -0.39 0.05 -0.08 0.41 -0.68 1.31 -2.08 1.33 -2 1.34 -1.94 1.34 -1.87 1.35 -1.81 1.37 -1.75 1.37 -1.69 1.4 -1.62 0 -0.01 1.39 -1.56 0 -0.01 1.42 -1.5 1.41 -1.46 0 -0.02 1.43 -1.4 1.43 -1.35 0 -0.01 1.44 -1.3 0 -0.01 1.45 -1.25 0 -0.01 1.46 -1.21 0 -0.02 1.47 -1.16 0 -0.02 1.48 -1.14 0 -0.01 1.48 -1.09 0 -0.01 1.49 -1.06 0 -0.01 3.01 -2.02 0 -0.02 1.52 -0.96 0 -0.01 1.52 -0.93 0 -0.01 1.53 -0.91 0 -0.02 1.53 -0.87 0.02 -0.02 1.53 -0.85 0.02 -0.01 1.54 -0.83 0.01 -0.02 1.54 -0.8 0.02 -0.02 1.56 -0.79 0 -0.02 1.57 -0.78 0 -0.02 1.58 -0.76 0 -0.02 1.59 -0.75 0 -0.02 1.59 -0.74 0 -0.01 1.59 -0.73 0 -0.01 1.59 -0.73 0 -0.01 1.6 -0.72 0 -0.01 1.62 -0.73 0 -0.01 1.61 -0.71 0.01 -0.02 1.62 -0.71 0 -0.01 1.62 -0.73 0 -0.01 1.64 -0.73 0 -0.01 1.64 -0.73 0 -0.01 1.64 -0.75 1.65 -0.77 1.65 -0.78 1.66 -0.79 0 -0.02 1.66 -0.79 0 -0.01 1.65 -0.82 0 -0.01 1.67 -0.83 0 -0.02 1.68 -0.85 0 -0.02 1.67 -0.88 0 -0.01 1.67 -0.91 0 -0.01 1.69 -0.93 0 -0.02 1.68 -0.96 1.69 -1.01 1.69 -1.03 1.69 -1.07 1.69 -1.11 1.7 -1.15 0 -0.02 1.7 -1.18 1.69 -1.23 1.7 -1.27 1.71 -1.33 1.59 -1.26 0.64 -0.51 0.95 -0.78 1.59 -1.31 1.59 -1.33 1.59 -1.34 0.96 -0.8 0.64 -0.55 1.6 -1.36 1.59 -1.38 0.65 -0.56 0.96 -0.85 1.59 -1.41 1.59 -1.43 0.33 -0.28 1.28 -1.15 1.59 -1.44 1.6 -1.45 1.59 -1.47 1.59 -1.47 1.29 -1.17 0.32 -0.31 1.6 -1.49 1.59 -1.49 1.59 -1.5 1.6 -1.49 0 -0.02 1.59 -1.5 1.59 -1.5 1.27 -1.2 0.32 -0.31 1.59 -1.51 0.31 -0.3 1.28 -1.22 0.94 -0.9 0.64 -0.61 1.59 -1.51 0 -0.01 1.58 -1.5 0.63 -0.6 0.96 -0.92 1.26 -1.19 0.31 -0.31 1.57 -1.49 0.32 -0.29 1.26 -1.21 1.56 -1.5 1.57 -1.47 0.02 -0.01 1.57 -1.48 1.55 -1.48 1.26 -1.16 0.31 -0.31 1.56 -1.45 0.3 -0.27 1.25 -1.18 0.93 -0.85 0.62 -0.59 1.55 -1.41 0.02 -0.02 1.54 -1.41 0.61 -0.55 0.93 -0.85 1.23 -1.1 0.31 -0.29 1.53 -1.37 0.3 -0.26 1.24 -1.11 0.91 -0.79 0.62 -0.55 3.03 -2.63 1.52 -1.29 1.52 -1.27 1.5 -1.26 0.28 -0.22 1.21 -1.01 0.89 -0.72 0.61 -0.5 1.48 -1.17 0.02 -0.02 1.48 -1.16 0.59 -0.45 2.06 -1.58 0.31 -0.25 1.47 -1.08 0.28 -0.21 1.18 -0.86 0.87 -0.62 0.59 -0.43 1.43 -1 0.02 -0.02 1.44 -0.98 0.08 -0.05c12.29,-8.28 23.93,-13.46 34.58,-13.46 88.25,0 263.56,162.53 439.08,230.64 -163.62,8.5 -251.06,70.85 -304.09,157.41l6.32 4.21c131.57,87.35 272.46,197.19 275.89,255.38 5.72,96.87 84.79,-88.14 211.32,-206.7 63.25,-59.27 142.07,-122.04 197.93,-161.35 80.01,-15.78 175.82,-4.83 240.02,-47.35 -6,53.28 -77.07,57.57 -111.27,75 -1.93,-2.88 -4.44,-5.19 -7.67,-6.78 -14.84,-7.19 -34.37,-12.03 -57.37,-15.34l1.84 0.27c-43.36,61.09 -193.03,163.22 -315.53,270.57 -20.85,18.26 -71.91,85.35 -100.67,133.22 -253.98,223.37 -536.13,-176.76 -792.77,-320.94z"/> <path class="fil3" d="M4803.27 8769.66c185.27,-15.49 421.71,-141.7 429.74,-117.91 7,20.71 -215.7,99.88 -408.29,138.47 -74.01,14.84 -184.62,-2.62 -219.06,16.22 -28,15.31 6.99,23.26 48.83,41.95 26.14,11.69 -6.07,20.78 20.45,32.34 41.02,17.86 135.02,36.18 123.61,36.18 -24.1,0 -161.12,-0.6 -177.71,-18.26 -16.41,-17.48 30.81,-16.59 6.71,-35.29 -35.45,-27.52 -110.38,-39.51 -110.38,-59.76 0,-47.93 100.83,-18.44 286.09,-33.94z"/> <path class="fil3" d="M5355.17 7998.54c-3.26,169.51 22.77,272.49 64.76,339.2 54.46,-147.11 36.98,-261.99 -64.76,-339.2z"/> <path class="fil3" d="M4789.77 9341.82c27.21,0 62.7,25.43 132.82,44.52 120.39,32.76 287.22,70.79 287.22,101.93 0,27.67 -107.05,-25.76 -217.54,-54.62 -86.26,-22.52 -126.77,6.55 -208.64,-19.71 -10.24,-3.28 -47.18,-12.09 -63.54,5.73 -18.83,20.52 -18.35,67.59 -49.37,53.77 -38.36,-17.09 -96.93,-149.94 -137.88,-168.46 -41.62,-18.84 -67.24,-15.83 -99.87,-29.45 -41.67,-17.4 -85.26,-50.23 -85.26,-63.49 0,-19.81 37,25.91 112.91,53.41 61.47,22.26 167.12,26.92 233.42,41.11 55.55,11.87 75.57,35.27 95.72,35.27z"/> <path class="fil3" d="M3400.84 7828.5c8.3,0 33.91,51.14 69.94,88.87 22.39,23.43 61.78,20.12 87.06,46.12 27.69,28.5 34.47,55.46 54.91,85.98 15.12,22.59 26.09,48.59 49.98,66.2 25.07,18.48 62.79,28.18 62.79,33.01 0,11.46 -27.82,32.14 -33.5,45.83 -9.44,22.83 -0.89,37.28 -18.19,37.28 -27.68,0 -91.91,-49.49 -91.91,-80.01 0,-16.57 -84.69,-49 -136.52,-131.37 -43.56,-69.25 -57.2,-191.91 -44.56,-191.91z"/> <path class="fil3" d="M4235.34 8893.67c8.15,0 65.37,28.67 68.72,52.29 2.35,16.52 -47.71,-27.17 -60.22,-12.76 -11.79,13.56 8.68,63.9 8.68,72.58 0,30.72 -25.15,12.09 -34.37,33.83 -10.66,25.19 -6.26,73.66 -16.58,73.66 -19.23,0 -13.44,-54.75 -13.44,-85.85 0,-12.4 20.87,-31.51 27.43,-55.62 9.89,-36.33 8.21,-78.13 19.78,-78.13z"/> <path class="fil3" d="M5351.01 8601.2c34.53,0 5.48,67.8 5.48,109.69 0,41.9 -85.03,134.69 -119.56,134.69 -34.54,0 -32.21,-46.43 -32.21,-88.33 0,-21.7 -2.08,-50.33 31.62,-84.89 31.36,-32.15 98.02,-71.16 114.67,-71.16z"/> <path class="fil3" d="M4525.52 9327.74c-75.7,49.94 -347.45,-112.56 -347.45,-171.71 0,-15.21 97.61,63.55 198.33,113.7 64.78,32.26 172.07,42.87 149.12,58.01z"/> <path class="fil3" d="M4768.03 9586.85c24.32,2.16 113.74,47.89 171.24,47.23 98.44,-1.14 210.57,-63.57 210.57,-49.02 0,15.11 -119.92,63.13 -229.32,65.22 -57.52,1.1 -120.69,-41.11 -143.52,-41.11 -66.25,0 -85.05,12.86 -88.56,-4.31 -3.52,-17.17 33.22,-22.1 79.6,-18z"/> <path class="fil3" d="M5440.81 8344.61c14.05,-17.11 -87.93,155.8 -185.49,232.67 -39.96,31.5 -115.96,97.79 -115.96,59.35 0,-8.01 62.98,-39.02 128.38,-103.58 77.8,-76.8 157.18,-169.09 173.07,-188.44z"/> <path class="fil3" d="M4018.39 9204.69c-6.83,30.23 -88.36,-102.28 -273.79,-204.89 -83.48,-46.2 -249.38,-64.36 -278.14,-63.55 -14.03,0.38 -13.1,-26.1 19.34,-28.87 56.78,-4.86 180.23,18.04 274.41,63.23 9.22,4.43 18.55,9.21 27.88,14.26 118.35,64.19 240.44,174.99 230.29,219.82z"/> <path class="fil3" d="M3827.86 8938.96c35.48,16.67 162.77,101.31 155.24,117.33 -3.04,6.48 -80.81,-55.45 -169.14,-95.11 -91.7,-41.16 -194.06,-60.35 -191.5,-65.81 7.52,-16.03 169.92,26.92 205.4,43.59z"/> <path class="fil3" d="M3787.57 8851.68c129.63,25.24 296.8,187.84 284.72,238.21 -2.61,10.83 -56.45,-120.89 -263.01,-196 -110.26,-40.09 -266.91,-21.61 -266.91,-42.17 0,-19.16 115.57,-25.28 245.2,-0.04z"/> <path class="fil3" d="M4144.45 9836.34c-150.94,-97.33 -282.36,-129.03 -273.21,-141.9 20.72,-29.19 221.98,65.71 391.6,195.13 128.88,98.35 259.21,230.74 213.54,208.79 -23.44,-11.28 -170.76,-158.1 -331.93,-262.02z"/> <path class="fil3" d="M4457.83 10136.35c0,11.74 -148.48,-125.31 -347.02,-222.12 -156.42,-76.27 -287.85,-126.73 -310.3,-156.2 -25.79,-33.85 21.2,-45.21 51.87,-32.78 16.96,6.86 218.96,112.06 386.91,226.14 115.14,78.19 218.54,177.45 218.54,184.96z"/> <path class="fil1" d="M4412.5 10224.32l1.11 -0.78 0.14 -0.11c31.37,-22.2 64.31,-47.5 101.19,-75.15l625.04 -295.63 -16.72 156.45 -1783.76 778.03 -18.42 -133.61c138.37,-154.31 272.61,-222.62 404.49,-240.48l28.13 -108.96 275.65 1.82c-15.14,9.31 -26.86,34.33 -31.44,59.41 163.01,18.64 290.8,-52.33 414.61,-140.98z"/> <path class="fil3" d="M10352.52 5129.6c70.36,22.01 113.35,84.72 96.04,140.09 -17.33,55.37 -88.4,82.4 -158.76,60.39 -70.36,-22 -113.35,-84.73 -96.03,-140.09 17.32,-55.37 88.4,-82.4 158.75,-60.39z"/> <path class="fil3" d="M3102.68 4741c52.67,0 95.36,40.97 95.36,91.52 0,50.56 -42.69,91.53 -95.36,91.53 -52.67,0 -95.36,-40.97 -95.36,-91.53 0,-50.55 42.69,-91.52 95.36,-91.52z"/> <path class="fil6" d="M7942.54 8378.52c18.07,66.75 2.11,153.83 -102.3,263.78 -301.34,317.37 -892.03,663.18 -1142.33,810.2 -838.44,492.5 -2014.77,949.22 -2767.98,1295.14 -1331.42,611.44 -2195.48,983.05 -2694.2,1057.46 -430.49,64.24 -1020.87,-319.72 -881.59,-337.88 11.99,-1.57 23.93,-3.22 35.84,-4.94 52.76,120.99 321.51,263.8 651.67,298.07 299.49,31.08 803.54,-143.47 1046.8,-249.88 3539.85,-1548.67 5821.55,-2566.28 5854.1,-3131.96z"/> <path class="fil6" d="M389.96 11462.29c52.76,120.99 321.51,263.8 651.67,298.07 299.49,31.08 803.54,-143.47 1046.8,-249.88 3539.85,-1548.67 5821.55,-2566.28 5854.1,-3131.96 18.07,66.75 2.11,153.83 -102.3,263.78 -301.34,317.37 -892.03,663.18 -1142.33,810.2 -838.44,492.5 -2014.77,949.22 -2767.98,1295.14 -1331.42,611.44 -2195.48,983.05 -2694.2,1057.46 -430.49,64.24 -1020.87,-319.72 -881.59,-337.88 11.99,-1.57 23.93,-3.22 35.84,-4.94z"/> <path class="fil7" d="M5971.66 2033.25c-39.27,20.84 -315.53,181.77 -319.45,163.62 -8.79,-40.74 196.37,-154.39 319.45,-163.62z"/> <path class="fil7" d="M5306.41 2696.22c10.75,-82.2 338.36,-134.08 464.83,-155.57l-464.83 155.57z"/> <path class="fil7" d="M5428.76 1746.89c-13.32,18.62 2.56,26.35 17.78,12.59 71.57,-71.06 131.59,-110.02 185.38,-131.7l54.22 -8.76c56.84,-5.07 30.31,-99.89 -70.77,-5.41 -87.65,42.93 -143.35,87.74 -186.6,133.28z"/> <path class="fil7" d="M5662.31 1713.87c56.67,-37.57 176.82,-65.55 183.84,-31.69 2,9.59 -46.66,3.15 -98.46,10.57 -34.26,4.92 -68.59,18.55 -85.38,21.11z"/> <path class="fil7" d="M5425.33 2472.39c32.09,-73.54 240.16,-128.22 466.16,-181.01l-466.16 181.01z"/> <path class="fil7" d="M5324.95 2056.75l92.11 5.94c37.06,-44.56 85.26,-89.13 138.17,-133.7 -55.96,-8.27 -138.65,48.79 -230.27,127.77z"/> <path class="fil7" d="M4893.18 2538.02c9.03,-91.65 21.88,-164.04 42.74,-196.56 75.62,69.14 156.03,105.57 240.74,99.94l-6.57 38.51c-90.44,-15.52 -180.6,-49.1 -234.73,-100.94 -14.05,19.41 -28.12,78.5 -42.17,159.04z"/> <path class="fil7" d="M5096.55 1943.08l42.81 44.54c41.36,-110.6 63.88,-184.6 58.23,-203.8l-101.04 159.26z"/> <path class="fil7" d="M4899.37 2719.33c-2.68,-44.17 -1.84,-86.53 11.27,-122.79 64.47,48.41 128.32,73.04 191.5,72.1l-3.36 45.06c-62.2,-16.05 -122.91,-37.35 -179.12,-74.35 -8.9,15.37 -13.88,42.05 -20.28,79.98z"/> <path class="fil7" d="M4945.61 2287.24c18.35,-85.63 41.41,-146.94 70.11,-179.19 65.23,78.24 160.25,106.84 272.66,106.48l-9.08 45.44c-113.02,-18.07 -212.19,-43.92 -264.88,-96.08 -20.17,18.02 -44.15,67.8 -68.81,123.35z"/> <path class="fil7" d="M5186.76 2061.08c-6.39,12.73 5.37,19.33 12.67,13.06l51.06 -70.92c12.83,-20.04 121.01,-95.71 70.37,-113.45 -33.03,-11.55 -69.88,38.74 -82.91,100.81l-51.19 70.5z"/> <path class="fil7" d="M5450.33 1626.91c-12.79,9.04 -2.25,27.72 16.05,16.03l81.17 -53.7c5.85,-6.88 0.63,-20.99 -18.22,-12.96l-79 50.63z"/> <path class="fil7" d="M4877.41 2896.82l9.07 -37.4c-17.86,-2.59 -38.32,-27.07 -60.08,-62.35 17.01,54.37 34.01,83.33 51.02,99.76z"/> <path class="fil7" d="M5222.13 3025.97l0 -0.68 -10.51 0.41 2.23 -82.15 260.63 -32.86 -240.85 45.7 -0.15 38.06c63.62,0.85 137.11,-4.87 214.33,-13.11 -60.36,19.34 -130.73,35.69 -225.69,44.62z"/> <path class="fil19" d="M6018.02 3072.35l63.36 79.2c61.74,52.98 -5.89,113.8 -54.38,131.27 -21.52,7.75 -27.19,-27.68 -36.78,-16.89 -82.37,92.65 -171.15,162.91 -270.09,197.61 5.13,49.26 3.27,65.63 -33.22,102.46 -17.28,-25.09 -44.65,-14.12 -61.89,-37.35 -12.41,-16.71 -14.8,-68.38 -27.02,-83.17 -17.53,-21.22 -42.8,-4.65 -59.46,-20.43 -19.94,-18.89 -36.07,-46.72 -49.57,-75.29 64.72,-6.99 133.08,-18.17 168.91,-32.65 8.39,-3.4 17.18,-7.3 26.27,-11.63 100.52,-47.8 239.85,-148.96 333.86,-233.13zm-552.43 279.76l-0.04 -2.07 13.24 0.77 -13.2 1.3z"/> <path class="fil7" d="M5684.16 3432.72c148.54,-80.69 259.17,-188.76 339.04,-319.01l25.76 38.63c-147.35,178.74 -266.99,265.69 -364.8,280.38z"/> <path class="fil20" d="M6280.26 1964.9c101.8,131.76 344.58,86.42 446.37,218.15 25.88,33.51 112.02,51.59 163.35,117.41 31.29,40.12 -3.07,110.02 13.85,163.36 18.7,58.87 87.33,101.46 92.22,147.74 27.83,263.65 -441.74,256.7 -686.04,260.94 1.24,-2.72 2.4,-5.45 3.47,-8.22 -15.54,-30.32 46.42,-37.9 80.65,-164.37 9.8,-36.18 26.07,-126.59 27.89,-192.48 1.01,-36.84 -11.23,-47.52 -10.42,-81.61 3.43,-142.54 2.91,-120.87 -105.11,-415.07l-26.22 -45.82z"/> <path class="fil3" d="M5689.3 3563.56c34.18,-35.14 35.85,-51.87 30.83,-100.03 98.94,-34.7 187.72,-104.96 270.09,-197.61 9.59,-10.79 15.26,24.65 36.78,16.89 48.49,-17.46 116.12,-78.29 54.38,-131.27l-63.36 -79.2c11.85,-10.62 23,-20.91 33.19,-30.86l35.04 -13c74,-13.97 191.44,-74.36 226.75,-163.04l0.03 -0.04c-0.94,2.37 -1.95,4.74 -3.01,7.07 161,-2.79 419.85,-0.74 569.67,-74.48 47.22,6.31 102.43,-20.72 168.26,-67.91 25.51,-18.29 52.58,-40.1 81.52,-62.59 5.75,123.81 -94.44,164.36 -49.67,222.7 -107.44,2.68 -287.17,109.14 -372.41,145.56 -200.89,85.83 -337.11,115.22 -510.27,163.53l10.54 92.3c-45.86,1.62 -170.34,13.74 -294.87,77.22 -63.83,32.54 -150.61,121.07 -223.48,194.74z"/> <path class="fil7" d="M6205.77 1803.02c115.63,-29.2 283.94,-77.77 410.41,3.73l-0.43 -0.26 -0.17 -0.1 -0.37 -0.24 -0.22 -0.12 -0.3 -0.18 -0.27 -0.15 -0.24 -0.15 -0.31 -0.18 -0.19 -0.1 -0.36 -0.21 -0.13 -0.07 -0.41 -0.23 -0.07 -0.04 -0.43 -0.24 -0.04 -0.03 -0.46 -0.24 -0.02 -0.01 -0.43 -0.22 -0.06 -0.04 -0.38 -0.19 -0.11 -0.05 -0.33 -0.17 -0.14 -0.07 -0.27 -0.13 -0.19 -0.09 -0.21 -0.11 -0.22 -0.1 -0.18 -0.09 -0.25 -0.11 -0.14 -0.05 -0.28 -0.13 -0.09 -0.04 -0.31 -0.13 -0.05 -0.02 -0.35 -0.13 -0.01 -0.01 -0.35 -0.12 -0.03 -0.02 -0.31 -0.09 -0.05 -0.03 -0.28 -0.09 -0.08 -0.02 -0.23 -0.08 -0.12 -0.04 -0.19 -0.05 -0.14 -0.04 -0.15 -0.04 -0.17 -0.04 -0.13 -0.04 -0.18 -0.04 -0.09 -0.02 -0.22 -0.04 -0.05 -0.02 -0.23 -0.04 -0.02 0 -0.24 -0.02 -0.24 -0.03 -0.03 0 -0.21 -0.01 -0.01 0 -0.02 0 -0.19 0.01 -0.06 0 -0.14 0 -0.08 0.02 -0.12 0.02 -0.09 0.01 -0.09 0.02 -0.03 0.01 -0.08 0.02 -0.06 0.02 -0.13 0.04 -0.05 0.02 -0.13 0.05 -0.02 0 -0.14 0.08 -0.01 0 -0.14 0.08 -0.13 0.09 -0.03 0.02 -0.1 0.09 -0.02 0.02 -0.12 0.13 -0.07 0.07 -0.02 0.04 -0.02 0.01 -0.05 0.07 -0.05 0.08 -0.04 0.05 -0.05 0.1 -0.03 0.05 -0.05 0.11 -0.02 0.04 -0.05 0.14 -0.01 0.03 -0.04 0.17 0 0.01 -0.03 0.18 -0.02 0.01 -0.02 0.18 0 0.04 -0.01 0.17 -0.02 0.06 0 0.15 -0.02 0.08 0 0.14 0 0.11 0.02 0.11 0 0.14 0.02 0.1 0.01 0.17 0.02 0.07 0.01 0.2 0.02 0.07 0.03 0.23 0 0.02 0.05 0.28 1.02 0.85 1.04 0.87 1.02 0.86 0.7 0.6 0.31 0.27 1.04 0.87 0.08 0.09 0.94 0.79 1.02 0.88 1.04 0.88 1.02 0.89 0.31 0.27 0.72 0.63 1.02 0.89 1.03 0.91 1.02 0.91 0.52 0.46 0.52 0.44 0.93 0.83 0.1 0.07 1.02 0.92 0.31 0.29 0.72 0.63 0.74 0.66 0.3 0.26 1.02 0.93 1.04 0.93 0.53 0.49 0.5 0.45 1.02 0.94 1.04 0.95 1.03 0.94 1.03 0.96 1.04 0.96 1.03 0.95 1.02 0.96 1.03 0.97 1.04 0.97 1.03 0.98 0.77 0.73 0.27 0.24 0 0.01 1.03 0.98 1.03 0.98 1.04 0.99 1.03 1 1.04 1 1.03 1.01 0.78 0.77 0.25 0.24 1.04 1 0.17 0.17 0.88 0.86 0.57 0.57 0.45 0.45 1.04 1.03 1.03 1.02 1.03 1.03 0.8 0.8 0.24 0.24 1.05 1.04 0.17 0.18 0.87 0.88 0.59 0.6 0.44 0.45 1.04 1.06 1.03 1.06 1.04 1.06 1.04 1.07 1.03 1.07 1.05 1.07 0.59 0.63 0.43 0.44 1.02 1.07 0.02 0.02 1.04 1.1 0.39 0.41 0.64 0.68 1.03 1.1 1.05 1.09 1.04 1.11 0.63 0.67 0.42 0.44 1.03 1.12c13.45,14.5 29.09,15.82 45.33,30.08 31.26,27.49 64.8,67.7 89.41,94.34 38.28,41.48 56.03,82.02 93.81,121.61 28.28,29.62 72.11,32.15 93.78,73.1 13.52,25.55 8.82,57.69 22.15,84.45 34.93,70.17 78.17,134.2 98.37,200.91l0.75 2.5 0.02 0 0.72 2.5 0.02 0 0.64 2.16 0.1 0.34 0.52 1.8 0.62 2.16 0.31 1.06 0.31 1.09 0.39 1.41 0.21 0.74 0.5 1.76 0.1 0.39 0.57 2.12 0.02 0.04 0.57 2.15 0.09 0.31 0.48 1.84 0.18 0.68 0.39 1.48 0.25 1.02 0.3 1.13 0.34 1.37 0.19 0.79 0.43 1.72 0.1 0.43 0.5 2.07 0.02 0.07 0.51 2.15 0.06 0.28 0.43 1.88 0.14 0.62 0.35 1.52 0.2 0.97 0.27 1.17 0.28 1.33 0.18 0.81 0.34 1.69 0.1 0.46 0.87 4.27 0.04 0.25 0.36 1.89 0.12 0.59 0.28 1.55 0.17 0.93 0.22 1.2 0.22 1.29 0.16 0.84 0.26 1.63 0.09 0.5 0.31 1.97 0.03 0.15 0.33 2.11 0.02 0.21 0.3 1.91 0.07 0.55 0.23 1.57 0.11 0.88 0.33 2.46 0.11 0.89 0.19 1.56 0.07 0.52 0.22 1.92 0.02 0.19 0.23 2.09 0.01 0.15 0.21 1.94 0.04 0.5 0.15 1.59 0.07 0.83 0.11 1.26 0.09 1.17 0.07 0.91 0.11 1.5 0.04 0.57 0.11 1.85 0.02 0.22 0.11 2.06 0 0.11 0.09 1.94 0.02 0.44 0.06 1.61 0.03 0.78 0.02 1.26 0.03 1.13 0.02 0.91 0.01 1.45 0 0.59 0 1.78 0 0.25 -0.01 2.03 0 0.08 -0.04 1.94 0 0.4 -0.05 1.6 -0.03 0.74 -0.05 1.26 -0.04 1.06 -0.05 0.94 -0.07 1.38 -0.04 0.61 -0.11 1.69 -0.01 0.29 -0.17 1.98 0 0.03 -0.17 1.93 -0.04 0.35 -0.17 1.61 -0.06 0.67 -0.16 1.28 -0.11 0.99 -0.13 0.96 -0.17 1.3 -0.09 0.64 -0.22 1.61 -0.06 0.32 -0.3 1.93 -0.02 0 -0.37 2.23 -0.01 0 -0.4 2.2 -0.01 0.02 -0.43 2.19 -0.02 0 -0.46 2.19 -0.02 0 -0.5 2.19 -0.53 2.17 -0.57 2.15c0.52,2.43 1,4.86 1.44,7.25l0.05 0.32 0.65 3.71 0.51 3.06 0.09 0.6 0.88 6.22 0.01 0.1 0.11 0.88 0.59 5.16 0.09 0.72 0.04 0.42 0.51 5.95 0.03 0.25 0.01 0.2 0.28 4.59 0.07 1.3c-28.94,22.49 -56.02,44.3 -81.52,62.59 -65.83,47.19 -121.04,74.21 -168.26,67.91 77.5,-38.14 125.86,-96.57 116.38,-186.46 -4.89,-46.28 -73.52,-88.87 -92.22,-147.74 -16.93,-53.34 17.43,-123.24 -13.85,-163.36 -51.33,-65.82 -137.47,-83.89 -163.35,-117.41 -101.79,-131.72 -344.56,-86.39 -446.37,-218.15l26.22 45.82 -90.88 -157.31 -0.67 -1.83c-2,-17.94 -4.91,-34.19 -8.86,-48.26l-0.31 -0.3zm923.72 864.87l0.02 0.76 0 0.39 -0.02 -1.15zm-513.3 -861.15l0.61 0.38 -0.5 -0.31 -0.12 -0.07zm0.61 0.38l0.63 0.4 -0.57 -0.36 -0.05 -0.04z"/> <path class="fil4" d="M5017.63 3105.51c35.4,26.71 80.02,48.88 148.9,57.9 20.79,70.74 93.04,121.37 182.88,165.1 -143.88,-40.63 -266.19,-93.68 -331.78,-223z"/> <path class="fil0" d="M4411.59 1548.2c14.09,-16.17 35.66,-0.89 32.04,11.67l-23.92 62.04c168.11,81.6 83.17,323.6 -101.22,278.06 -238.44,612.48 -649.79,1613.52 -940.74,2376.27 -8.34,1.06 -18.35,3.8 -30.62,9.94 -20.88,10.44 -35.99,41.11 -45.08,62.9 -8.98,-46.26 -16.51,-78.68 -23.75,-102.61 272.59,-695.79 535.84,-1459.07 967.83,-2367.6 -149.11,-90.35 -70.65,-322.78 139.01,-270.61l26.46 -60.04z"/> <path class="fil2" d="M4411.59 1548.2c14.09,-16.17 35.66,-0.89 32.04,11.67l-23.92 62.04c168.11,81.6 83.17,323.6 -101.22,278.06 -238.44,612.48 -649.79,1613.52 -940.74,2376.27 -8.34,1.06 -18.35,3.8 -30.62,9.94 -20.88,10.44 -35.99,41.11 -45.08,62.9 -8.98,-46.26 -16.51,-78.68 -23.75,-102.61 272.59,-695.79 535.84,-1459.07 967.83,-2367.6 -149.11,-90.35 -70.65,-322.78 139.01,-270.61l26.46 -60.04z"/> <path class="fil7" d="M4246.12 1878.86c-84.77,-51.37 -95.95,-148.64 -51.33,-213.43 8.32,19.4 7.82,53.03 23.56,66.91 13.81,12.17 42.31,-19.93 49.11,-1.93 8.28,21.89 10.31,47.83 6.62,73.68l-27.96 74.76z"/> <path class="fil7" d="M4419.7 1621.91c168.11,81.6 83.17,323.6 -101.22,278.06 -21.88,56.19 -45.21,115.68 -69.78,177.94 18.98,-100.04 67.29,-252.76 51.65,-272.72 -4.97,-6.37 -21.11,-39.25 -8.04,-58.04 19.41,-27.95 53.12,-17.83 44.1,-32.91 -9.46,-15.8 -35.33,-11.19 -61.67,-23.35 -24.03,-11.11 -48.75,-29.8 -63.6,-45.19 35.93,-36.21 93.72,-55.83 168.79,-38.65 1.73,0.46 3.47,0.87 5.19,1.2 15.26,2.93 28.76,8.55 34.57,13.67z"/> </g> </svg>